<?xml version="1.0" encoding="utf-8"?>
<svg xmlns="http://www.w3.org/2000/svg" xmlns:xlink="http://www.w3.org/1999/xlink" width="550" height="280" viewBox="0 0 2200 1120">
<defs>
  <clipPath id="clip890">
    <rect x="0" y="0" width="2200" height="1120"/>
  </clipPath>
</defs>
<path clip-path="url(#clip890)" d="M0 1120 L2200 1120 L2200 2.27374e-13 L0 2.27374e-13  Z" fill="#ffffff" fill-rule="evenodd" fill-opacity="1"/>
<defs>
  <clipPath id="clip891">
    <rect x="440" y="0" width="1541" height="1120"/>
  </clipPath>
</defs>
<path clip-path="url(#clip890)" d="M206.148 967.381 L1037.67 967.381 L1037.67 47.2441 L206.148 47.2441  Z" fill="#ffffff" fill-rule="evenodd" fill-opacity="1"/>
<defs>
  <clipPath id="clip892">
    <rect x="206" y="47" width="833" height="921"/>
  </clipPath>
</defs>
<polyline clip-path="url(#clip890)" style="stroke:#000000; stroke-linecap:round; stroke-linejoin:round; stroke-width:4; stroke-opacity:1; fill:none" points="206.148,967.381 1037.67,967.381 "/>
<polyline clip-path="url(#clip890)" style="stroke:#000000; stroke-linecap:round; stroke-linejoin:round; stroke-width:4; stroke-opacity:1; fill:none" points="206.148,47.2441 1037.67,47.2441 "/>
<polyline clip-path="url(#clip890)" style="stroke:#000000; stroke-linecap:round; stroke-linejoin:round; stroke-width:4; stroke-opacity:1; fill:none" points="206.148,967.381 206.148,948.483 "/>
<polyline clip-path="url(#clip890)" style="stroke:#000000; stroke-linecap:round; stroke-linejoin:round; stroke-width:4; stroke-opacity:1; fill:none" points="372.454,967.381 372.454,948.483 "/>
<polyline clip-path="url(#clip890)" style="stroke:#000000; stroke-linecap:round; stroke-linejoin:round; stroke-width:4; stroke-opacity:1; fill:none" points="538.759,967.381 538.759,948.483 "/>
<polyline clip-path="url(#clip890)" style="stroke:#000000; stroke-linecap:round; stroke-linejoin:round; stroke-width:4; stroke-opacity:1; fill:none" points="705.064,967.381 705.064,948.483 "/>
<polyline clip-path="url(#clip890)" style="stroke:#000000; stroke-linecap:round; stroke-linejoin:round; stroke-width:4; stroke-opacity:1; fill:none" points="871.37,967.381 871.37,948.483 "/>
<polyline clip-path="url(#clip890)" style="stroke:#000000; stroke-linecap:round; stroke-linejoin:round; stroke-width:4; stroke-opacity:1; fill:none" points="1037.67,967.381 1037.67,948.483 "/>
<path clip-path="url(#clip890)" d="M206.148 996.699 Q202.537 996.699 200.708 1000.26 Q198.903 1003.81 198.903 1010.94 Q198.903 1018.04 200.708 1021.61 Q202.537 1025.15 206.148 1025.15 Q209.782 1025.15 211.588 1021.61 Q213.417 1018.04 213.417 1010.94 Q213.417 1003.81 211.588 1000.26 Q209.782 996.699 206.148 996.699 M206.148 992.996 Q211.958 992.996 215.014 997.602 Q218.093 1002.19 218.093 1010.94 Q218.093 1019.66 215.014 1024.27 Q211.958 1028.85 206.148 1028.85 Q200.338 1028.85 197.259 1024.27 Q194.204 1019.66 194.204 1010.94 Q194.204 1002.19 197.259 997.602 Q200.338 992.996 206.148 992.996 Z" fill="#000000" fill-rule="nonzero" fill-opacity="1" /><path clip-path="url(#clip890)" d="M362.731 993.621 L381.088 993.621 L381.088 997.556 L367.014 997.556 L367.014 1006.03 Q368.032 1005.68 369.051 1005.52 Q370.069 1005.33 371.088 1005.33 Q376.875 1005.33 380.254 1008.5 Q383.634 1011.68 383.634 1017.09 Q383.634 1022.67 380.162 1025.77 Q376.69 1028.85 370.37 1028.85 Q368.194 1028.85 365.926 1028.48 Q363.68 1028.11 361.273 1027.37 L361.273 1022.67 Q363.356 1023.81 365.579 1024.36 Q367.801 1024.92 370.278 1024.92 Q374.282 1024.92 376.62 1022.81 Q378.958 1020.7 378.958 1017.09 Q378.958 1013.48 376.62 1011.38 Q374.282 1009.27 370.278 1009.27 Q368.403 1009.27 366.528 1009.69 Q364.676 1010.1 362.731 1010.98 L362.731 993.621 Z" fill="#000000" fill-rule="nonzero" fill-opacity="1" /><path clip-path="url(#clip890)" d="M513.447 1024.25 L521.085 1024.25 L521.085 997.88 L512.775 999.546 L512.775 995.287 L521.039 993.621 L525.715 993.621 L525.715 1024.25 L533.354 1024.25 L533.354 1028.18 L513.447 1028.18 L513.447 1024.25 Z" fill="#000000" fill-rule="nonzero" fill-opacity="1" /><path clip-path="url(#clip890)" d="M552.798 996.699 Q549.187 996.699 547.358 1000.26 Q545.553 1003.81 545.553 1010.94 Q545.553 1018.04 547.358 1021.61 Q549.187 1025.15 552.798 1025.15 Q556.432 1025.15 558.238 1021.61 Q560.067 1018.04 560.067 1010.94 Q560.067 1003.81 558.238 1000.26 Q556.432 996.699 552.798 996.699 M552.798 992.996 Q558.608 992.996 561.664 997.602 Q564.743 1002.19 564.743 1010.94 Q564.743 1019.66 561.664 1024.27 Q558.608 1028.85 552.798 1028.85 Q546.988 1028.85 543.909 1024.27 Q540.854 1019.66 540.854 1010.94 Q540.854 1002.19 543.909 997.602 Q546.988 992.996 552.798 992.996 Z" fill="#000000" fill-rule="nonzero" fill-opacity="1" /><path clip-path="url(#clip890)" d="M680.25 1024.25 L687.888 1024.25 L687.888 997.88 L679.578 999.546 L679.578 995.287 L687.842 993.621 L692.518 993.621 L692.518 1024.25 L700.157 1024.25 L700.157 1028.18 L680.25 1028.18 L680.25 1024.25 Z" fill="#000000" fill-rule="nonzero" fill-opacity="1" /><path clip-path="url(#clip890)" d="M709.648 993.621 L728.004 993.621 L728.004 997.556 L713.93 997.556 L713.93 1006.03 Q714.948 1005.68 715.967 1005.52 Q716.985 1005.33 718.004 1005.33 Q723.791 1005.33 727.171 1008.5 Q730.55 1011.68 730.55 1017.09 Q730.55 1022.67 727.078 1025.77 Q723.606 1028.85 717.286 1028.85 Q715.11 1028.85 712.842 1028.48 Q710.597 1028.11 708.189 1027.37 L708.189 1022.67 Q710.273 1023.81 712.495 1024.36 Q714.717 1024.92 717.194 1024.92 Q721.198 1024.92 723.536 1022.81 Q725.874 1020.7 725.874 1017.09 Q725.874 1013.48 723.536 1011.38 Q721.198 1009.27 717.194 1009.27 Q715.319 1009.27 713.444 1009.69 Q711.592 1010.1 709.648 1010.98 L709.648 993.621 Z" fill="#000000" fill-rule="nonzero" fill-opacity="1" /><path clip-path="url(#clip890)" d="M850.143 1024.25 L866.462 1024.25 L866.462 1028.18 L844.518 1028.18 L844.518 1024.25 Q847.18 1021.49 851.763 1016.86 Q856.37 1012.21 857.55 1010.87 Q859.796 1008.34 860.675 1006.61 Q861.578 1004.85 861.578 1003.16 Q861.578 1000.4 859.634 998.667 Q857.712 996.931 854.61 996.931 Q852.411 996.931 849.958 997.695 Q847.527 998.459 844.749 1000.01 L844.749 995.287 Q847.573 994.153 850.027 993.574 Q852.481 992.996 854.518 992.996 Q859.888 992.996 863.083 995.681 Q866.277 998.366 866.277 1002.86 Q866.277 1004.99 865.467 1006.91 Q864.68 1008.81 862.573 1011.4 Q861.995 1012.07 858.893 1015.29 Q855.791 1018.48 850.143 1024.25 Z" fill="#000000" fill-rule="nonzero" fill-opacity="1" /><path clip-path="url(#clip890)" d="M886.277 996.699 Q882.666 996.699 880.837 1000.26 Q879.032 1003.81 879.032 1010.94 Q879.032 1018.04 880.837 1021.61 Q882.666 1025.15 886.277 1025.15 Q889.911 1025.15 891.717 1021.61 Q893.545 1018.04 893.545 1010.94 Q893.545 1003.81 891.717 1000.26 Q889.911 996.699 886.277 996.699 M886.277 992.996 Q892.087 992.996 895.143 997.602 Q898.221 1002.19 898.221 1010.94 Q898.221 1019.66 895.143 1024.27 Q892.087 1028.85 886.277 1028.85 Q880.467 1028.85 877.388 1024.27 Q874.333 1019.66 874.333 1010.94 Q874.333 1002.19 877.388 997.602 Q880.467 992.996 886.277 992.996 Z" fill="#000000" fill-rule="nonzero" fill-opacity="1" /><path clip-path="url(#clip890)" d="M1016.95 1024.25 L1033.27 1024.25 L1033.27 1028.18 L1011.32 1028.18 L1011.32 1024.25 Q1013.98 1021.49 1018.57 1016.86 Q1023.17 1012.21 1024.35 1010.87 Q1026.6 1008.34 1027.48 1006.61 Q1028.38 1004.85 1028.38 1003.16 Q1028.38 1000.4 1026.44 998.667 Q1024.52 996.931 1021.41 996.931 Q1019.21 996.931 1016.76 997.695 Q1014.33 998.459 1011.55 1000.01 L1011.55 995.287 Q1014.38 994.153 1016.83 993.574 Q1019.28 992.996 1021.32 992.996 Q1026.69 992.996 1029.89 995.681 Q1033.08 998.366 1033.08 1002.86 Q1033.08 1004.99 1032.27 1006.91 Q1031.48 1008.81 1029.38 1011.4 Q1028.8 1012.07 1025.7 1015.29 Q1022.59 1018.48 1016.95 1024.25 Z" fill="#000000" fill-rule="nonzero" fill-opacity="1" /><path clip-path="url(#clip890)" d="M1043.13 993.621 L1061.48 993.621 L1061.48 997.556 L1047.41 997.556 L1047.41 1006.03 Q1048.43 1005.68 1049.45 1005.52 Q1050.46 1005.33 1051.48 1005.33 Q1057.27 1005.33 1060.65 1008.5 Q1064.03 1011.68 1064.03 1017.09 Q1064.03 1022.67 1060.56 1025.77 Q1057.08 1028.85 1050.77 1028.85 Q1048.59 1028.85 1046.32 1028.48 Q1044.08 1028.11 1041.67 1027.37 L1041.67 1022.67 Q1043.75 1023.81 1045.97 1024.36 Q1048.2 1024.92 1050.67 1024.92 Q1054.68 1024.92 1057.02 1022.81 Q1059.35 1020.7 1059.35 1017.09 Q1059.35 1013.48 1057.02 1011.38 Q1054.68 1009.27 1050.67 1009.27 Q1048.8 1009.27 1046.92 1009.69 Q1045.07 1010.1 1043.13 1010.98 L1043.13 993.621 Z" fill="#000000" fill-rule="nonzero" fill-opacity="1" /><path clip-path="url(#clip890)" d="M595.247 1069.37 Q595.247 1070.27 594.829 1070.5 Q594.41 1070.69 593.251 1070.69 L587.067 1070.69 L582.172 1090.14 Q581.785 1091.85 581.785 1093.3 Q581.785 1094.91 582.268 1095.62 Q582.784 1096.33 583.846 1096.33 Q585.94 1096.33 588.194 1094.43 Q590.481 1092.53 592.413 1087.89 Q592.671 1087.28 592.8 1087.15 Q592.961 1086.99 593.379 1086.99 Q594.185 1086.99 594.185 1087.63 Q594.185 1087.86 593.734 1088.89 Q593.315 1089.92 592.381 1091.43 Q591.479 1092.95 590.288 1094.36 Q589.128 1095.78 587.357 1096.81 Q585.586 1097.81 583.685 1097.81 Q581.012 1097.81 579.305 1096.1 Q577.631 1094.39 577.631 1091.72 Q577.631 1090.85 578.307 1088.08 Q578.983 1085.28 582.655 1070.69 L576.826 1070.69 Q576.02 1070.69 575.698 1070.66 Q575.408 1070.63 575.183 1070.47 Q574.99 1070.27 574.99 1069.89 Q574.99 1069.27 575.247 1069.02 Q575.505 1068.73 575.827 1068.69 Q576.181 1068.63 576.987 1068.63 L583.17 1068.63 L585.747 1058.16 Q586.004 1057.13 586.648 1056.55 Q587.325 1055.94 587.711 1055.88 Q588.098 1055.78 588.387 1055.78 Q589.257 1055.78 589.772 1056.26 Q590.288 1056.71 590.288 1057.55 Q590.288 1058 587.582 1068.63 L593.379 1068.63 Q594.12 1068.63 594.41 1068.66 Q594.732 1068.69 594.99 1068.86 Q595.247 1069.02 595.247 1069.37 Z" fill="#000000" fill-rule="nonzero" fill-opacity="1" /><path clip-path="url(#clip890)" d="M598.562 1112.62 Q598.562 1112.3 598.82 1111.59 L622.105 1049.37 Q622.105 1049.31 622.266 1048.95 Q622.427 1048.6 622.523 1048.37 Q622.62 1048.11 622.813 1047.92 Q623.039 1047.73 623.296 1047.73 Q623.941 1047.73 623.941 1048.53 Q623.941 1048.6 623.747 1049.37 L600.398 1111.66 Q600.012 1112.78 599.754 1113.11 Q599.529 1113.43 599.142 1113.43 Q598.562 1113.43 598.562 1112.62 Z" fill="#000000" fill-rule="nonzero" fill-opacity="1" /><path clip-path="url(#clip890)" d="M663.593 1087.63 Q663.593 1087.89 663.303 1088.89 Q663.013 1089.89 662.304 1091.43 Q661.628 1092.98 660.694 1094.39 Q659.76 1095.78 658.214 1096.81 Q656.701 1097.81 654.961 1097.81 Q652.643 1097.81 651.097 1096.26 Q649.551 1094.72 649.551 1092.4 Q649.551 1092.08 649.583 1091.75 Q649.615 1091.43 649.647 1091.24 Q649.68 1091.01 649.776 1090.66 Q649.905 1090.27 649.937 1090.11 Q650.002 1089.95 650.163 1089.47 Q650.356 1088.95 650.42 1088.76 Q654.511 1078.32 654.511 1073.98 Q654.511 1069.37 650.936 1069.37 Q647.747 1069.37 644.591 1071.69 Q643.142 1072.85 641.757 1074.91 Q640.372 1076.97 640.115 1077.74 Q639.825 1079.42 639.406 1080.71 Q639.213 1081.61 638.279 1085.12 L636.83 1091.08 L635.574 1096.07 Q635.316 1096.78 634.607 1097.29 Q633.899 1097.81 633.126 1097.81 Q632.482 1097.81 631.838 1097.36 Q631.226 1096.94 631.226 1095.94 Q631.226 1095.43 631.483 1094.49 L641.049 1056.49 L641.242 1055.2 Q641.242 1054.81 641.081 1054.62 Q640.952 1054.4 640.179 1054.23 Q639.438 1054.07 637.957 1054.07 Q637.345 1054.07 637.055 1054.04 Q636.797 1054.01 636.572 1053.85 Q636.346 1053.65 636.346 1053.27 Q636.346 1052.72 636.572 1052.43 Q636.83 1052.11 637.023 1052.04 Q637.216 1051.98 637.602 1051.95 Q638.15 1051.92 639.986 1051.75 Q641.821 1051.56 643.4 1051.43 Q644.978 1051.3 645.654 1051.3 Q646.04 1051.3 646.234 1051.5 Q646.459 1051.66 646.491 1051.85 L646.524 1052.01 L641.371 1072.98 Q645.461 1067.92 651.129 1067.92 Q654.8 1067.92 656.765 1069.82 Q658.73 1071.69 658.73 1074.97 Q658.73 1078.74 654.704 1089.47 Q653.512 1092.46 653.512 1094.17 Q653.512 1095.3 653.866 1095.81 Q654.253 1096.33 655.09 1096.33 Q656.379 1096.33 657.506 1095.59 Q658.665 1094.81 659.47 1093.56 Q660.275 1092.27 660.823 1090.98 Q661.403 1089.66 661.821 1088.18 Q662.079 1087.37 662.208 1087.18 Q662.369 1086.99 662.82 1086.99 Q663.593 1086.99 663.593 1087.63 Z" fill="#000000" fill-rule="nonzero" fill-opacity="1" /><polyline clip-path="url(#clip890)" style="stroke:#000000; stroke-linecap:round; stroke-linejoin:round; stroke-width:4; stroke-opacity:1; fill:none" points="206.148,967.381 206.148,47.2441 "/>
<polyline clip-path="url(#clip890)" style="stroke:#000000; stroke-linecap:round; stroke-linejoin:round; stroke-width:4; stroke-opacity:1; fill:none" points="1037.67,967.381 1037.67,47.2441 "/>
<polyline clip-path="url(#clip890)" style="stroke:#000000; stroke-linecap:round; stroke-linejoin:round; stroke-width:4; stroke-opacity:1; fill:none" points="206.148,967.381 225.046,967.381 "/>
<polyline clip-path="url(#clip890)" style="stroke:#000000; stroke-linecap:round; stroke-linejoin:round; stroke-width:4; stroke-opacity:1; fill:none" points="206.148,711.787 225.046,711.787 "/>
<polyline clip-path="url(#clip890)" style="stroke:#000000; stroke-linecap:round; stroke-linejoin:round; stroke-width:4; stroke-opacity:1; fill:none" points="206.148,456.194 225.046,456.194 "/>
<polyline clip-path="url(#clip890)" style="stroke:#000000; stroke-linecap:round; stroke-linejoin:round; stroke-width:4; stroke-opacity:1; fill:none" points="206.148,200.6 225.046,200.6 "/>
<path clip-path="url(#clip890)" d="M115.973 953.179 Q112.361 953.179 110.533 956.744 Q108.727 960.286 108.727 967.415 Q108.727 974.522 110.533 978.087 Q112.361 981.628 115.973 981.628 Q119.607 981.628 121.412 978.087 Q123.241 974.522 123.241 967.415 Q123.241 960.286 121.412 956.744 Q119.607 953.179 115.973 953.179 M115.973 949.476 Q121.783 949.476 124.838 954.082 Q127.917 958.665 127.917 967.415 Q127.917 976.142 124.838 980.749 Q121.783 985.332 115.973 985.332 Q110.162 985.332 107.084 980.749 Q104.028 976.142 104.028 967.415 Q104.028 958.665 107.084 954.082 Q110.162 949.476 115.973 949.476 Z" fill="#000000" fill-rule="nonzero" fill-opacity="1" /><path clip-path="url(#clip890)" d="M136.134 978.781 L141.019 978.781 L141.019 984.661 L136.134 984.661 L136.134 978.781 Z" fill="#000000" fill-rule="nonzero" fill-opacity="1" /><path clip-path="url(#clip890)" d="M161.204 953.179 Q157.593 953.179 155.764 956.744 Q153.958 960.286 153.958 967.415 Q153.958 974.522 155.764 978.087 Q157.593 981.628 161.204 981.628 Q164.838 981.628 166.644 978.087 Q168.472 974.522 168.472 967.415 Q168.472 960.286 166.644 956.744 Q164.838 953.179 161.204 953.179 M161.204 949.476 Q167.014 949.476 170.069 954.082 Q173.148 958.665 173.148 967.415 Q173.148 976.142 170.069 980.749 Q167.014 985.332 161.204 985.332 Q155.394 985.332 152.315 980.749 Q149.259 976.142 149.259 967.415 Q149.259 958.665 152.315 954.082 Q155.394 949.476 161.204 949.476 Z" fill="#000000" fill-rule="nonzero" fill-opacity="1" /><path clip-path="url(#clip890)" d="M116.968 697.586 Q113.357 697.586 111.528 701.151 Q109.723 704.692 109.723 711.822 Q109.723 718.928 111.528 722.493 Q113.357 726.035 116.968 726.035 Q120.602 726.035 122.408 722.493 Q124.236 718.928 124.236 711.822 Q124.236 704.692 122.408 701.151 Q120.602 697.586 116.968 697.586 M116.968 693.882 Q122.778 693.882 125.834 698.489 Q128.912 703.072 128.912 711.822 Q128.912 720.549 125.834 725.155 Q122.778 729.738 116.968 729.738 Q111.158 729.738 108.079 725.155 Q105.024 720.549 105.024 711.822 Q105.024 703.072 108.079 698.489 Q111.158 693.882 116.968 693.882 Z" fill="#000000" fill-rule="nonzero" fill-opacity="1" /><path clip-path="url(#clip890)" d="M137.13 723.188 L142.014 723.188 L142.014 729.067 L137.13 729.067 L137.13 723.188 Z" fill="#000000" fill-rule="nonzero" fill-opacity="1" /><path clip-path="url(#clip890)" d="M152.245 694.507 L170.602 694.507 L170.602 698.442 L156.528 698.442 L156.528 706.914 Q157.546 706.567 158.565 706.405 Q159.583 706.22 160.602 706.22 Q166.389 706.22 169.769 709.391 Q173.148 712.563 173.148 717.979 Q173.148 723.558 169.676 726.66 Q166.204 729.738 159.884 729.738 Q157.708 729.738 155.44 729.368 Q153.195 728.998 150.787 728.257 L150.787 723.558 Q152.87 724.692 155.093 725.248 Q157.315 725.803 159.792 725.803 Q163.796 725.803 166.134 723.697 Q168.472 721.59 168.472 717.979 Q168.472 714.368 166.134 712.262 Q163.796 710.155 159.792 710.155 Q157.917 710.155 156.042 710.572 Q154.19 710.988 152.245 711.868 L152.245 694.507 Z" fill="#000000" fill-rule="nonzero" fill-opacity="1" /><path clip-path="url(#clip890)" d="M106.783 469.538 L114.422 469.538 L114.422 443.173 L106.111 444.84 L106.111 440.58 L114.375 438.914 L119.051 438.914 L119.051 469.538 L126.69 469.538 L126.69 473.474 L106.783 473.474 L106.783 469.538 Z" fill="#000000" fill-rule="nonzero" fill-opacity="1" /><path clip-path="url(#clip890)" d="M136.134 467.594 L141.019 467.594 L141.019 473.474 L136.134 473.474 L136.134 467.594 Z" fill="#000000" fill-rule="nonzero" fill-opacity="1" /><path clip-path="url(#clip890)" d="M161.204 441.992 Q157.593 441.992 155.764 445.557 Q153.958 449.099 153.958 456.228 Q153.958 463.335 155.764 466.9 Q157.593 470.441 161.204 470.441 Q164.838 470.441 166.644 466.9 Q168.472 463.335 168.472 456.228 Q168.472 449.099 166.644 445.557 Q164.838 441.992 161.204 441.992 M161.204 438.289 Q167.014 438.289 170.069 442.895 Q173.148 447.478 173.148 456.228 Q173.148 464.955 170.069 469.562 Q167.014 474.145 161.204 474.145 Q155.394 474.145 152.315 469.562 Q149.259 464.955 149.259 456.228 Q149.259 447.478 152.315 442.895 Q155.394 438.289 161.204 438.289 Z" fill="#000000" fill-rule="nonzero" fill-opacity="1" /><path clip-path="url(#clip890)" d="M107.778 213.945 L115.417 213.945 L115.417 187.579 L107.107 189.246 L107.107 184.987 L115.371 183.32 L120.047 183.32 L120.047 213.945 L127.685 213.945 L127.685 217.88 L107.778 217.88 L107.778 213.945 Z" fill="#000000" fill-rule="nonzero" fill-opacity="1" /><path clip-path="url(#clip890)" d="M137.13 212.001 L142.014 212.001 L142.014 217.88 L137.13 217.88 L137.13 212.001 Z" fill="#000000" fill-rule="nonzero" fill-opacity="1" /><path clip-path="url(#clip890)" d="M152.245 183.32 L170.602 183.32 L170.602 187.255 L156.528 187.255 L156.528 195.728 Q157.546 195.38 158.565 195.218 Q159.583 195.033 160.602 195.033 Q166.389 195.033 169.769 198.204 Q173.148 201.376 173.148 206.792 Q173.148 212.371 169.676 215.473 Q166.204 218.551 159.884 218.551 Q157.708 218.551 155.44 218.181 Q153.195 217.811 150.787 217.07 L150.787 212.371 Q152.87 213.505 155.093 214.061 Q157.315 214.616 159.792 214.616 Q163.796 214.616 166.134 212.51 Q168.472 210.403 168.472 206.792 Q168.472 203.181 166.134 201.075 Q163.796 198.968 159.792 198.968 Q157.917 198.968 156.042 199.385 Q154.19 199.802 152.245 200.681 L152.245 183.32 Z" fill="#000000" fill-rule="nonzero" fill-opacity="1" /><path clip-path="url(#clip890)" d="M14.5357 686.475 L32.3915 686.475 L32.3915 678.391 Q32.3915 673.903 30.068 671.452 Q27.7445 669.001 23.4477 669.001 Q19.1827 669.001 16.8592 671.452 Q14.5357 673.903 14.5357 678.391 L14.5357 686.475 M9.25216 692.905 L9.25216 678.391 Q9.25216 670.402 12.8806 666.328 Q16.4772 662.222 23.4477 662.222 Q30.4818 662.222 34.0784 666.328 Q37.675 670.402 37.675 678.391 L37.675 686.475 L56.7722 686.475 L56.7722 692.905 L9.25216 692.905 Z" fill="#000000" fill-rule="nonzero" fill-opacity="1" /><path clip-path="url(#clip890)" d="M25.2301 642.361 Q25.2301 647.071 28.9222 649.809 Q32.5825 652.546 38.98 652.546 Q45.3775 652.546 49.0697 649.841 Q52.7299 647.103 52.7299 642.361 Q52.7299 637.682 49.0378 634.945 Q45.3457 632.207 38.98 632.207 Q32.6461 632.207 28.954 634.945 Q25.2301 637.682 25.2301 642.361 M20.2648 642.361 Q20.2648 634.722 25.2301 630.361 Q30.1953 626.001 38.98 626.001 Q47.7329 626.001 52.7299 630.361 Q57.6952 634.722 57.6952 642.361 Q57.6952 650.031 52.7299 654.392 Q47.7329 658.721 38.98 658.721 Q30.1953 658.721 25.2301 654.392 Q20.2648 650.031 20.2648 642.361 Z" fill="#000000" fill-rule="nonzero" fill-opacity="1" /><path clip-path="url(#clip890)" d="M21.1242 619.699 L21.1242 613.842 L48.9423 606.522 L21.1242 599.233 L21.1242 592.326 L48.9423 585.006 L21.1242 577.717 L21.1242 571.861 L56.7722 581.186 L56.7722 588.093 L27.5536 595.764 L56.7722 603.466 L56.7722 610.373 L21.1242 619.699 Z" fill="#000000" fill-rule="nonzero" fill-opacity="1" /><path clip-path="url(#clip890)" d="M37.4841 532.489 L40.3486 532.489 L40.3486 559.416 Q46.3961 559.034 49.5789 555.787 Q52.7299 552.509 52.7299 546.684 Q52.7299 543.31 51.9024 540.159 Q51.0749 536.977 49.4198 533.857 L54.9579 533.857 Q56.2947 537.008 56.995 540.319 Q57.6952 543.629 57.6952 547.034 Q57.6952 555.564 52.7299 560.561 Q47.7647 565.527 39.2983 565.527 Q30.5454 565.527 25.4211 560.816 Q20.2648 556.074 20.2648 548.053 Q20.2648 540.86 24.9118 536.69 Q29.5269 532.489 37.4841 532.489 M35.7653 538.345 Q30.9592 538.409 28.0946 541.051 Q25.2301 543.661 25.2301 547.989 Q25.2301 552.891 27.9992 555.851 Q30.7682 558.779 35.7972 559.225 L35.7653 538.345 Z" fill="#000000" fill-rule="nonzero" fill-opacity="1" /><path clip-path="url(#clip890)" d="M26.5987 502.22 Q26.0258 503.206 25.7712 504.384 Q25.4847 505.53 25.4847 506.93 Q25.4847 511.896 28.7312 514.569 Q31.9459 517.211 37.9933 517.211 L56.7722 517.211 L56.7722 523.099 L21.1242 523.099 L21.1242 517.211 L26.6624 517.211 Q23.4159 515.365 21.8563 512.405 Q20.2648 509.445 20.2648 505.212 Q20.2648 504.607 20.3603 503.875 Q20.424 503.143 20.5831 502.252 L26.5987 502.22 Z" fill="#000000" fill-rule="nonzero" fill-opacity="1" /><path clip-path="url(#clip890)" d="M9.25216 464.949 L9.25216 459.538 L62.8196 476.089 L62.8196 481.499 L9.25216 464.949 Z" fill="#000000" fill-rule="nonzero" fill-opacity="1" /><path clip-path="url(#clip890)" d="M51.425 427.009 L70.3311 427.009 L70.3311 432.897 L21.1242 432.897 L21.1242 427.009 L26.5351 427.009 Q23.3522 425.163 21.8244 422.362 Q20.2648 419.529 20.2648 415.614 Q20.2648 409.121 25.4211 405.079 Q30.5773 401.005 38.98 401.005 Q47.3827 401.005 52.539 405.079 Q57.6952 409.121 57.6952 415.614 Q57.6952 419.529 56.1674 422.362 Q54.6078 425.163 51.425 427.009 M38.98 407.084 Q32.5188 407.084 28.8585 409.758 Q25.1664 412.4 25.1664 417.047 Q25.1664 421.694 28.8585 424.367 Q32.5188 427.009 38.98 427.009 Q45.4412 427.009 49.1333 424.367 Q52.7936 421.694 52.7936 417.047 Q52.7936 412.4 49.1333 409.758 Q45.4412 407.084 38.98 407.084 Z" fill="#000000" fill-rule="nonzero" fill-opacity="1" /><path clip-path="url(#clip890)" d="M48.6877 390.47 L48.6877 383.754 L56.7722 383.754 L56.7722 390.47 L48.6877 390.47 Z" fill="#000000" fill-rule="nonzero" fill-opacity="1" /><path clip-path="url(#clip890)" d="M42.7039 371.182 L21.1242 371.182 L21.1242 365.325 L42.4811 365.325 Q47.5419 365.325 50.0882 363.352 Q52.6026 361.379 52.6026 357.432 Q52.6026 352.689 49.5789 349.952 Q46.5552 347.183 41.3353 347.183 L21.1242 347.183 L21.1242 341.327 L56.7722 341.327 L56.7722 347.183 L51.2976 347.183 Q54.5442 349.315 56.1356 352.148 Q57.6952 354.949 57.6952 358.673 Q57.6952 364.816 53.8758 367.999 Q50.0563 371.182 42.7039 371.182 M20.2648 356.445 L20.2648 356.445 Z" fill="#000000" fill-rule="nonzero" fill-opacity="1" /><path clip-path="url(#clip890)" d="M48.6877 328.436 L48.6877 321.72 L56.7722 321.72 L56.7722 328.436 L48.6877 328.436 Z" fill="#000000" fill-rule="nonzero" fill-opacity="1" /><polyline clip-path="url(#clip892)" style="stroke:#ffa500; stroke-linecap:round; stroke-linejoin:round; stroke-width:8; stroke-opacity:1; fill:none" points="239.409,875.607 272.67,912.691 305.931,905.561 339.192,908.731 372.454,917.104 405.715,919.809 438.976,781.314 472.237,830.228 505.498,801.226 538.759,799.877 572.02,897.293 605.281,892.814 638.542,891.323 671.803,888.474 705.064,893.667 738.325,806.791 771.586,757.471 804.847,725.939 838.109,748.663 871.37,709.464 904.631,721.112 937.892,798.591 971.153,804.897 1004.41,734.662 "/>
<circle clip-path="url(#clip892)" cx="239.409" cy="875.607" r="14.4" fill="#ffffff" fill-rule="evenodd" fill-opacity="1" stroke="#ffa500" stroke-opacity="1" stroke-width="4.48"/>
<circle clip-path="url(#clip892)" cx="272.67" cy="912.691" r="14.4" fill="#ffffff" fill-rule="evenodd" fill-opacity="1" stroke="#ffa500" stroke-opacity="1" stroke-width="4.48"/>
<circle clip-path="url(#clip892)" cx="305.931" cy="905.561" r="14.4" fill="#ffffff" fill-rule="evenodd" fill-opacity="1" stroke="#ffa500" stroke-opacity="1" stroke-width="4.48"/>
<circle clip-path="url(#clip892)" cx="339.192" cy="908.731" r="14.4" fill="#ffffff" fill-rule="evenodd" fill-opacity="1" stroke="#ffa500" stroke-opacity="1" stroke-width="4.48"/>
<circle clip-path="url(#clip892)" cx="372.454" cy="917.104" r="14.4" fill="#ffffff" fill-rule="evenodd" fill-opacity="1" stroke="#ffa500" stroke-opacity="1" stroke-width="4.48"/>
<circle clip-path="url(#clip892)" cx="405.715" cy="919.809" r="14.4" fill="#ffffff" fill-rule="evenodd" fill-opacity="1" stroke="#ffa500" stroke-opacity="1" stroke-width="4.48"/>
<circle clip-path="url(#clip892)" cx="438.976" cy="781.314" r="14.4" fill="#ffffff" fill-rule="evenodd" fill-opacity="1" stroke="#ffa500" stroke-opacity="1" stroke-width="4.48"/>
<circle clip-path="url(#clip892)" cx="472.237" cy="830.228" r="14.4" fill="#ffffff" fill-rule="evenodd" fill-opacity="1" stroke="#ffa500" stroke-opacity="1" stroke-width="4.48"/>
<circle clip-path="url(#clip892)" cx="505.498" cy="801.226" r="14.4" fill="#ffffff" fill-rule="evenodd" fill-opacity="1" stroke="#ffa500" stroke-opacity="1" stroke-width="4.48"/>
<circle clip-path="url(#clip892)" cx="538.759" cy="799.877" r="14.4" fill="#ffffff" fill-rule="evenodd" fill-opacity="1" stroke="#ffa500" stroke-opacity="1" stroke-width="4.48"/>
<circle clip-path="url(#clip892)" cx="572.02" cy="897.293" r="14.4" fill="#ffffff" fill-rule="evenodd" fill-opacity="1" stroke="#ffa500" stroke-opacity="1" stroke-width="4.48"/>
<circle clip-path="url(#clip892)" cx="605.281" cy="892.814" r="14.4" fill="#ffffff" fill-rule="evenodd" fill-opacity="1" stroke="#ffa500" stroke-opacity="1" stroke-width="4.48"/>
<circle clip-path="url(#clip892)" cx="638.542" cy="891.323" r="14.4" fill="#ffffff" fill-rule="evenodd" fill-opacity="1" stroke="#ffa500" stroke-opacity="1" stroke-width="4.48"/>
<circle clip-path="url(#clip892)" cx="671.803" cy="888.474" r="14.4" fill="#ffffff" fill-rule="evenodd" fill-opacity="1" stroke="#ffa500" stroke-opacity="1" stroke-width="4.48"/>
<circle clip-path="url(#clip892)" cx="705.064" cy="893.667" r="14.4" fill="#ffffff" fill-rule="evenodd" fill-opacity="1" stroke="#ffa500" stroke-opacity="1" stroke-width="4.48"/>
<circle clip-path="url(#clip892)" cx="738.325" cy="806.791" r="14.4" fill="#ffffff" fill-rule="evenodd" fill-opacity="1" stroke="#ffa500" stroke-opacity="1" stroke-width="4.48"/>
<circle clip-path="url(#clip892)" cx="771.586" cy="757.471" r="14.4" fill="#ffffff" fill-rule="evenodd" fill-opacity="1" stroke="#ffa500" stroke-opacity="1" stroke-width="4.48"/>
<circle clip-path="url(#clip892)" cx="804.847" cy="725.939" r="14.4" fill="#ffffff" fill-rule="evenodd" fill-opacity="1" stroke="#ffa500" stroke-opacity="1" stroke-width="4.48"/>
<circle clip-path="url(#clip892)" cx="838.109" cy="748.663" r="14.4" fill="#ffffff" fill-rule="evenodd" fill-opacity="1" stroke="#ffa500" stroke-opacity="1" stroke-width="4.48"/>
<circle clip-path="url(#clip892)" cx="871.37" cy="709.464" r="14.4" fill="#ffffff" fill-rule="evenodd" fill-opacity="1" stroke="#ffa500" stroke-opacity="1" stroke-width="4.48"/>
<circle clip-path="url(#clip892)" cx="904.631" cy="721.112" r="14.4" fill="#ffffff" fill-rule="evenodd" fill-opacity="1" stroke="#ffa500" stroke-opacity="1" stroke-width="4.48"/>
<circle clip-path="url(#clip892)" cx="937.892" cy="798.591" r="14.4" fill="#ffffff" fill-rule="evenodd" fill-opacity="1" stroke="#ffa500" stroke-opacity="1" stroke-width="4.48"/>
<circle clip-path="url(#clip892)" cx="971.153" cy="804.897" r="14.4" fill="#ffffff" fill-rule="evenodd" fill-opacity="1" stroke="#ffa500" stroke-opacity="1" stroke-width="4.48"/>
<circle clip-path="url(#clip892)" cx="1004.41" cy="734.662" r="14.4" fill="#ffffff" fill-rule="evenodd" fill-opacity="1" stroke="#ffa500" stroke-opacity="1" stroke-width="4.48"/>
<polyline clip-path="url(#clip892)" style="stroke:#add8e6; stroke-linecap:round; stroke-linejoin:round; stroke-width:8; stroke-opacity:1; fill:none" stroke-dasharray="32, 20" points="239.409,875.607 272.67,912.691 305.931,905.561 339.192,908.731 372.454,917.104 405.715,715.335 438.976,781.314 472.237,830.228 505.498,801.226 538.759,799.877 572.02,897.293 605.281,892.814 638.542,891.323 671.803,888.474 705.064,893.667 738.325,806.791 771.586,757.471 804.847,725.939 838.109,748.663 871.37,709.464 904.631,721.112 937.892,798.591 971.153,804.897 1004.41,734.662 "/>
<path clip-path="url(#clip892)" d="M223.409 859.607 L223.409 891.607 L255.409 891.607 L255.409 859.607 L223.409 859.607 Z" fill="#ffffff" fill-rule="evenodd" fill-opacity="1" stroke="#add8e6" stroke-opacity="1" stroke-width="4.48"/>
<path clip-path="url(#clip892)" d="M256.67 896.691 L256.67 928.691 L288.67 928.691 L288.67 896.691 L256.67 896.691 Z" fill="#ffffff" fill-rule="evenodd" fill-opacity="1" stroke="#add8e6" stroke-opacity="1" stroke-width="4.48"/>
<path clip-path="url(#clip892)" d="M289.931 889.561 L289.931 921.561 L321.931 921.561 L321.931 889.561 L289.931 889.561 Z" fill="#ffffff" fill-rule="evenodd" fill-opacity="1" stroke="#add8e6" stroke-opacity="1" stroke-width="4.48"/>
<path clip-path="url(#clip892)" d="M323.192 892.731 L323.192 924.731 L355.192 924.731 L355.192 892.731 L323.192 892.731 Z" fill="#ffffff" fill-rule="evenodd" fill-opacity="1" stroke="#add8e6" stroke-opacity="1" stroke-width="4.48"/>
<path clip-path="url(#clip892)" d="M356.454 901.104 L356.454 933.104 L388.454 933.104 L388.454 901.104 L356.454 901.104 Z" fill="#ffffff" fill-rule="evenodd" fill-opacity="1" stroke="#add8e6" stroke-opacity="1" stroke-width="4.48"/>
<path clip-path="url(#clip892)" d="M389.715 699.335 L389.715 731.335 L421.715 731.335 L421.715 699.335 L389.715 699.335 Z" fill="#ffffff" fill-rule="evenodd" fill-opacity="1" stroke="#add8e6" stroke-opacity="1" stroke-width="4.48"/>
<path clip-path="url(#clip892)" d="M422.976 765.314 L422.976 797.314 L454.976 797.314 L454.976 765.314 L422.976 765.314 Z" fill="#ffffff" fill-rule="evenodd" fill-opacity="1" stroke="#add8e6" stroke-opacity="1" stroke-width="4.48"/>
<path clip-path="url(#clip892)" d="M456.237 814.228 L456.237 846.228 L488.237 846.228 L488.237 814.228 L456.237 814.228 Z" fill="#ffffff" fill-rule="evenodd" fill-opacity="1" stroke="#add8e6" stroke-opacity="1" stroke-width="4.48"/>
<path clip-path="url(#clip892)" d="M489.498 785.226 L489.498 817.226 L521.498 817.226 L521.498 785.226 L489.498 785.226 Z" fill="#ffffff" fill-rule="evenodd" fill-opacity="1" stroke="#add8e6" stroke-opacity="1" stroke-width="4.48"/>
<path clip-path="url(#clip892)" d="M522.759 783.877 L522.759 815.877 L554.759 815.877 L554.759 783.877 L522.759 783.877 Z" fill="#ffffff" fill-rule="evenodd" fill-opacity="1" stroke="#add8e6" stroke-opacity="1" stroke-width="4.48"/>
<path clip-path="url(#clip892)" d="M556.02 881.293 L556.02 913.293 L588.02 913.293 L588.02 881.293 L556.02 881.293 Z" fill="#ffffff" fill-rule="evenodd" fill-opacity="1" stroke="#add8e6" stroke-opacity="1" stroke-width="4.48"/>
<path clip-path="url(#clip892)" d="M589.281 876.814 L589.281 908.814 L621.281 908.814 L621.281 876.814 L589.281 876.814 Z" fill="#ffffff" fill-rule="evenodd" fill-opacity="1" stroke="#add8e6" stroke-opacity="1" stroke-width="4.48"/>
<path clip-path="url(#clip892)" d="M622.542 875.323 L622.542 907.323 L654.542 907.323 L654.542 875.323 L622.542 875.323 Z" fill="#ffffff" fill-rule="evenodd" fill-opacity="1" stroke="#add8e6" stroke-opacity="1" stroke-width="4.48"/>
<path clip-path="url(#clip892)" d="M655.803 872.474 L655.803 904.474 L687.803 904.474 L687.803 872.474 L655.803 872.474 Z" fill="#ffffff" fill-rule="evenodd" fill-opacity="1" stroke="#add8e6" stroke-opacity="1" stroke-width="4.48"/>
<path clip-path="url(#clip892)" d="M689.064 877.667 L689.064 909.667 L721.064 909.667 L721.064 877.667 L689.064 877.667 Z" fill="#ffffff" fill-rule="evenodd" fill-opacity="1" stroke="#add8e6" stroke-opacity="1" stroke-width="4.48"/>
<path clip-path="url(#clip892)" d="M722.325 790.791 L722.325 822.791 L754.325 822.791 L754.325 790.791 L722.325 790.791 Z" fill="#ffffff" fill-rule="evenodd" fill-opacity="1" stroke="#add8e6" stroke-opacity="1" stroke-width="4.48"/>
<path clip-path="url(#clip892)" d="M755.586 741.471 L755.586 773.471 L787.586 773.471 L787.586 741.471 L755.586 741.471 Z" fill="#ffffff" fill-rule="evenodd" fill-opacity="1" stroke="#add8e6" stroke-opacity="1" stroke-width="4.48"/>
<path clip-path="url(#clip892)" d="M788.847 709.939 L788.847 741.939 L820.847 741.939 L820.847 709.939 L788.847 709.939 Z" fill="#ffffff" fill-rule="evenodd" fill-opacity="1" stroke="#add8e6" stroke-opacity="1" stroke-width="4.48"/>
<path clip-path="url(#clip892)" d="M822.109 732.663 L822.109 764.663 L854.109 764.663 L854.109 732.663 L822.109 732.663 Z" fill="#ffffff" fill-rule="evenodd" fill-opacity="1" stroke="#add8e6" stroke-opacity="1" stroke-width="4.48"/>
<path clip-path="url(#clip892)" d="M855.37 693.464 L855.37 725.464 L887.37 725.464 L887.37 693.464 L855.37 693.464 Z" fill="#ffffff" fill-rule="evenodd" fill-opacity="1" stroke="#add8e6" stroke-opacity="1" stroke-width="4.48"/>
<path clip-path="url(#clip892)" d="M888.631 705.112 L888.631 737.112 L920.631 737.112 L920.631 705.112 L888.631 705.112 Z" fill="#ffffff" fill-rule="evenodd" fill-opacity="1" stroke="#add8e6" stroke-opacity="1" stroke-width="4.48"/>
<path clip-path="url(#clip892)" d="M921.892 782.591 L921.892 814.591 L953.892 814.591 L953.892 782.591 L921.892 782.591 Z" fill="#ffffff" fill-rule="evenodd" fill-opacity="1" stroke="#add8e6" stroke-opacity="1" stroke-width="4.48"/>
<path clip-path="url(#clip892)" d="M955.153 788.897 L955.153 820.897 L987.153 820.897 L987.153 788.897 L955.153 788.897 Z" fill="#ffffff" fill-rule="evenodd" fill-opacity="1" stroke="#add8e6" stroke-opacity="1" stroke-width="4.48"/>
<path clip-path="url(#clip892)" d="M988.414 718.662 L988.414 750.662 L1020.41 750.662 L1020.41 718.662 L988.414 718.662 Z" fill="#ffffff" fill-rule="evenodd" fill-opacity="1" stroke="#add8e6" stroke-opacity="1" stroke-width="4.48"/>
<polyline clip-path="url(#clip892)" style="stroke:#90ee90; stroke-linecap:round; stroke-linejoin:round; stroke-width:8; stroke-opacity:1; fill:none" stroke-dasharray="4, 8" points="239.409,875.607 272.67,912.691 305.931,905.561 339.192,908.731 372.454,917.104 405.715,715.335 438.976,781.314 472.237,830.228 505.498,801.226 538.759,799.877 572.02,897.293 605.281,892.814 638.542,891.323 671.803,888.474 705.064,893.667 738.325,806.791 771.586,757.471 804.847,725.939 838.109,748.663 871.37,709.464 904.631,721.112 937.892,798.591 971.153,804.897 1004.41,734.662 "/>
<path clip-path="url(#clip892)" d="M239.409 859.607 L223.409 875.607 L239.409 891.607 L255.409 875.607 L239.409 859.607 Z" fill="#ffffff" fill-rule="evenodd" fill-opacity="1" stroke="#90ee90" stroke-opacity="1" stroke-width="4.48"/>
<path clip-path="url(#clip892)" d="M272.67 896.691 L256.67 912.691 L272.67 928.691 L288.67 912.691 L272.67 896.691 Z" fill="#ffffff" fill-rule="evenodd" fill-opacity="1" stroke="#90ee90" stroke-opacity="1" stroke-width="4.48"/>
<path clip-path="url(#clip892)" d="M305.931 889.561 L289.931 905.561 L305.931 921.561 L321.931 905.561 L305.931 889.561 Z" fill="#ffffff" fill-rule="evenodd" fill-opacity="1" stroke="#90ee90" stroke-opacity="1" stroke-width="4.48"/>
<path clip-path="url(#clip892)" d="M339.192 892.731 L323.192 908.731 L339.192 924.731 L355.192 908.731 L339.192 892.731 Z" fill="#ffffff" fill-rule="evenodd" fill-opacity="1" stroke="#90ee90" stroke-opacity="1" stroke-width="4.48"/>
<path clip-path="url(#clip892)" d="M372.454 901.104 L356.454 917.104 L372.454 933.104 L388.454 917.104 L372.454 901.104 Z" fill="#ffffff" fill-rule="evenodd" fill-opacity="1" stroke="#90ee90" stroke-opacity="1" stroke-width="4.48"/>
<path clip-path="url(#clip892)" d="M405.715 699.335 L389.715 715.335 L405.715 731.335 L421.715 715.335 L405.715 699.335 Z" fill="#ffffff" fill-rule="evenodd" fill-opacity="1" stroke="#90ee90" stroke-opacity="1" stroke-width="4.48"/>
<path clip-path="url(#clip892)" d="M438.976 765.314 L422.976 781.314 L438.976 797.314 L454.976 781.314 L438.976 765.314 Z" fill="#ffffff" fill-rule="evenodd" fill-opacity="1" stroke="#90ee90" stroke-opacity="1" stroke-width="4.48"/>
<path clip-path="url(#clip892)" d="M472.237 814.228 L456.237 830.228 L472.237 846.228 L488.237 830.228 L472.237 814.228 Z" fill="#ffffff" fill-rule="evenodd" fill-opacity="1" stroke="#90ee90" stroke-opacity="1" stroke-width="4.48"/>
<path clip-path="url(#clip892)" d="M505.498 785.226 L489.498 801.226 L505.498 817.226 L521.498 801.226 L505.498 785.226 Z" fill="#ffffff" fill-rule="evenodd" fill-opacity="1" stroke="#90ee90" stroke-opacity="1" stroke-width="4.48"/>
<path clip-path="url(#clip892)" d="M538.759 783.877 L522.759 799.877 L538.759 815.877 L554.759 799.877 L538.759 783.877 Z" fill="#ffffff" fill-rule="evenodd" fill-opacity="1" stroke="#90ee90" stroke-opacity="1" stroke-width="4.48"/>
<path clip-path="url(#clip892)" d="M572.02 881.293 L556.02 897.293 L572.02 913.293 L588.02 897.293 L572.02 881.293 Z" fill="#ffffff" fill-rule="evenodd" fill-opacity="1" stroke="#90ee90" stroke-opacity="1" stroke-width="4.48"/>
<path clip-path="url(#clip892)" d="M605.281 876.814 L589.281 892.814 L605.281 908.814 L621.281 892.814 L605.281 876.814 Z" fill="#ffffff" fill-rule="evenodd" fill-opacity="1" stroke="#90ee90" stroke-opacity="1" stroke-width="4.48"/>
<path clip-path="url(#clip892)" d="M638.542 875.323 L622.542 891.323 L638.542 907.323 L654.542 891.323 L638.542 875.323 Z" fill="#ffffff" fill-rule="evenodd" fill-opacity="1" stroke="#90ee90" stroke-opacity="1" stroke-width="4.48"/>
<path clip-path="url(#clip892)" d="M671.803 872.474 L655.803 888.474 L671.803 904.474 L687.803 888.474 L671.803 872.474 Z" fill="#ffffff" fill-rule="evenodd" fill-opacity="1" stroke="#90ee90" stroke-opacity="1" stroke-width="4.48"/>
<path clip-path="url(#clip892)" d="M705.064 877.667 L689.064 893.667 L705.064 909.667 L721.064 893.667 L705.064 877.667 Z" fill="#ffffff" fill-rule="evenodd" fill-opacity="1" stroke="#90ee90" stroke-opacity="1" stroke-width="4.48"/>
<path clip-path="url(#clip892)" d="M738.325 790.791 L722.325 806.791 L738.325 822.791 L754.325 806.791 L738.325 790.791 Z" fill="#ffffff" fill-rule="evenodd" fill-opacity="1" stroke="#90ee90" stroke-opacity="1" stroke-width="4.48"/>
<path clip-path="url(#clip892)" d="M771.586 741.471 L755.586 757.471 L771.586 773.471 L787.586 757.471 L771.586 741.471 Z" fill="#ffffff" fill-rule="evenodd" fill-opacity="1" stroke="#90ee90" stroke-opacity="1" stroke-width="4.48"/>
<path clip-path="url(#clip892)" d="M804.847 709.939 L788.847 725.939 L804.847 741.939 L820.847 725.939 L804.847 709.939 Z" fill="#ffffff" fill-rule="evenodd" fill-opacity="1" stroke="#90ee90" stroke-opacity="1" stroke-width="4.48"/>
<path clip-path="url(#clip892)" d="M838.109 732.663 L822.109 748.663 L838.109 764.663 L854.109 748.663 L838.109 732.663 Z" fill="#ffffff" fill-rule="evenodd" fill-opacity="1" stroke="#90ee90" stroke-opacity="1" stroke-width="4.48"/>
<path clip-path="url(#clip892)" d="M871.37 693.464 L855.37 709.464 L871.37 725.464 L887.37 709.464 L871.37 693.464 Z" fill="#ffffff" fill-rule="evenodd" fill-opacity="1" stroke="#90ee90" stroke-opacity="1" stroke-width="4.48"/>
<path clip-path="url(#clip892)" d="M904.631 705.112 L888.631 721.112 L904.631 737.112 L920.631 721.112 L904.631 705.112 Z" fill="#ffffff" fill-rule="evenodd" fill-opacity="1" stroke="#90ee90" stroke-opacity="1" stroke-width="4.48"/>
<path clip-path="url(#clip892)" d="M937.892 782.591 L921.892 798.591 L937.892 814.591 L953.892 798.591 L937.892 782.591 Z" fill="#ffffff" fill-rule="evenodd" fill-opacity="1" stroke="#90ee90" stroke-opacity="1" stroke-width="4.48"/>
<path clip-path="url(#clip892)" d="M971.153 788.897 L955.153 804.897 L971.153 820.897 L987.153 804.897 L971.153 788.897 Z" fill="#ffffff" fill-rule="evenodd" fill-opacity="1" stroke="#90ee90" stroke-opacity="1" stroke-width="4.48"/>
<path clip-path="url(#clip892)" d="M1004.41 718.662 L988.414 734.662 L1004.41 750.662 L1020.41 734.662 L1004.41 718.662 Z" fill="#ffffff" fill-rule="evenodd" fill-opacity="1" stroke="#90ee90" stroke-opacity="1" stroke-width="4.48"/>
<path clip-path="url(#clip890)" d="M289.703 292.888 L1009.96 292.888 L1009.96 77.9153 L289.703 77.9153  Z" fill="#ffffff" fill-rule="evenodd" fill-opacity="1"/>
<polyline clip-path="url(#clip890)" style="stroke:#000000; stroke-linecap:round; stroke-linejoin:round; stroke-width:4; stroke-opacity:1; fill:none" points="289.703,292.888 1009.96,292.888 1009.96,77.9153 289.703,77.9153 289.703,292.888 "/>
<polyline clip-path="url(#clip890)" style="stroke:#ffa500; stroke-linecap:round; stroke-linejoin:round; stroke-width:8; stroke-opacity:1; fill:none" points="298.942,131.658 354.377,131.658 "/>
<circle clip-path="url(#clip890)" cx="326.66" cy="131.658" r="7.42668" fill="#ffffff" fill-rule="evenodd" fill-opacity="1" stroke="#ffa500" stroke-opacity="1" stroke-width="4.62105"/>
<g clip-path="url(#clip890)">
<text style="fill:#000000; fill-opacity:1; font-family:Book Antiqua,Palatino,Palatino Linotype,Palatino LT STD,Georgia,serif; font-size:51px; font-weight:bold; text-anchor:start;" transform="rotate(0, 363.617, 149.158)" x="363.617" y="149.158">benchmark</text>
</g>
<polyline clip-path="url(#clip890)" style="stroke:#add8e6; stroke-linecap:round; stroke-linejoin:round; stroke-width:8; stroke-opacity:1; fill:none" stroke-dasharray="32, 20" points="298.942,185.401 354.377,185.401 "/>
<path clip-path="url(#clip890)" d="M318.408 177.15 L318.408 193.653 L334.912 193.653 L334.912 177.15 L318.408 177.15 Z" fill="#ffffff" fill-rule="evenodd" fill-opacity="1" stroke="#add8e6" stroke-opacity="1" stroke-width="4.62105"/>
<g clip-path="url(#clip890)">
<text style="fill:#000000; fill-opacity:1; font-family:Book Antiqua,Palatino,Palatino Linotype,Palatino LT STD,Georgia,serif; font-size:51px; font-weight:bold; text-anchor:start;" transform="rotate(0, 363.617, 202.901)" x="363.617" y="202.901">upforward flexiramp</text>
</g>
<polyline clip-path="url(#clip890)" style="stroke:#90ee90; stroke-linecap:round; stroke-linejoin:round; stroke-width:8; stroke-opacity:1; fill:none" stroke-dasharray="4, 8" points="298.942,239.145 354.377,239.145 "/>
<path clip-path="url(#clip890)" d="M326.66 230.893 L318.408 239.145 L326.66 247.396 L334.912 239.145 L326.66 230.893 Z" fill="#ffffff" fill-rule="evenodd" fill-opacity="1" stroke="#90ee90" stroke-opacity="1" stroke-width="4.62105"/>
<g clip-path="url(#clip890)">
<text style="fill:#000000; fill-opacity:1; font-family:Book Antiqua,Palatino,Palatino Linotype,Palatino LT STD,Georgia,serif; font-size:51px; font-weight:bold; text-anchor:start;" transform="rotate(0, 363.617, 256.645)" x="363.617" y="256.645">actual upforward flexiramp</text>
</g>
<path clip-path="url(#clip890)" d="M1321.23 967.381 L2152.76 967.381 L2152.76 47.2441 L1321.23 47.2441  Z" fill="#ffffff" fill-rule="evenodd" fill-opacity="1"/>
<defs>
  <clipPath id="clip893">
    <rect x="1321" y="47" width="833" height="921"/>
  </clipPath>
</defs>
<polyline clip-path="url(#clip890)" style="stroke:#000000; stroke-linecap:round; stroke-linejoin:round; stroke-width:4; stroke-opacity:1; fill:none" points="1321.23,967.381 2152.76,967.381 "/>
<polyline clip-path="url(#clip890)" style="stroke:#000000; stroke-linecap:round; stroke-linejoin:round; stroke-width:4; stroke-opacity:1; fill:none" points="1321.23,47.2441 2152.76,47.2441 "/>
<polyline clip-path="url(#clip890)" style="stroke:#000000; stroke-linecap:round; stroke-linejoin:round; stroke-width:4; stroke-opacity:1; fill:none" points="1321.23,967.381 1321.23,948.483 "/>
<polyline clip-path="url(#clip890)" style="stroke:#000000; stroke-linecap:round; stroke-linejoin:round; stroke-width:4; stroke-opacity:1; fill:none" points="1487.53,967.381 1487.53,948.483 "/>
<polyline clip-path="url(#clip890)" style="stroke:#000000; stroke-linecap:round; stroke-linejoin:round; stroke-width:4; stroke-opacity:1; fill:none" points="1653.84,967.381 1653.84,948.483 "/>
<polyline clip-path="url(#clip890)" style="stroke:#000000; stroke-linecap:round; stroke-linejoin:round; stroke-width:4; stroke-opacity:1; fill:none" points="1820.15,967.381 1820.15,948.483 "/>
<polyline clip-path="url(#clip890)" style="stroke:#000000; stroke-linecap:round; stroke-linejoin:round; stroke-width:4; stroke-opacity:1; fill:none" points="1986.45,967.381 1986.45,948.483 "/>
<polyline clip-path="url(#clip890)" style="stroke:#000000; stroke-linecap:round; stroke-linejoin:round; stroke-width:4; stroke-opacity:1; fill:none" points="2152.76,967.381 2152.76,948.483 "/>
<path clip-path="url(#clip890)" d="M1321.23 996.699 Q1317.62 996.699 1315.79 1000.26 Q1313.98 1003.81 1313.98 1010.94 Q1313.98 1018.04 1315.79 1021.61 Q1317.62 1025.15 1321.23 1025.15 Q1324.86 1025.15 1326.67 1021.61 Q1328.5 1018.04 1328.5 1010.94 Q1328.5 1003.81 1326.67 1000.26 Q1324.86 996.699 1321.23 996.699 M1321.23 992.996 Q1327.04 992.996 1330.09 997.602 Q1333.17 1002.19 1333.17 1010.94 Q1333.17 1019.66 1330.09 1024.27 Q1327.04 1028.85 1321.23 1028.85 Q1315.42 1028.85 1312.34 1024.27 Q1309.28 1019.66 1309.28 1010.94 Q1309.28 1002.19 1312.34 997.602 Q1315.42 992.996 1321.23 992.996 Z" fill="#000000" fill-rule="nonzero" fill-opacity="1" /><path clip-path="url(#clip890)" d="M1477.81 993.621 L1496.17 993.621 L1496.17 997.556 L1482.09 997.556 L1482.09 1006.03 Q1483.11 1005.68 1484.13 1005.52 Q1485.15 1005.33 1486.17 1005.33 Q1491.96 1005.33 1495.34 1008.5 Q1498.71 1011.68 1498.71 1017.09 Q1498.71 1022.67 1495.24 1025.77 Q1491.77 1028.85 1485.45 1028.85 Q1483.28 1028.85 1481.01 1028.48 Q1478.76 1028.11 1476.35 1027.37 L1476.35 1022.67 Q1478.44 1023.81 1480.66 1024.36 Q1482.88 1024.92 1485.36 1024.92 Q1489.36 1024.92 1491.7 1022.81 Q1494.04 1020.7 1494.04 1017.09 Q1494.04 1013.48 1491.7 1011.38 Q1489.36 1009.27 1485.36 1009.27 Q1483.48 1009.27 1481.61 1009.69 Q1479.76 1010.1 1477.81 1010.98 L1477.81 993.621 Z" fill="#000000" fill-rule="nonzero" fill-opacity="1" /><path clip-path="url(#clip890)" d="M1628.53 1024.25 L1636.17 1024.25 L1636.17 997.88 L1627.86 999.546 L1627.86 995.287 L1636.12 993.621 L1640.8 993.621 L1640.8 1024.25 L1648.43 1024.25 L1648.43 1028.18 L1628.53 1028.18 L1628.53 1024.25 Z" fill="#000000" fill-rule="nonzero" fill-opacity="1" /><path clip-path="url(#clip890)" d="M1667.88 996.699 Q1664.27 996.699 1662.44 1000.26 Q1660.63 1003.81 1660.63 1010.94 Q1660.63 1018.04 1662.44 1021.61 Q1664.27 1025.15 1667.88 1025.15 Q1671.51 1025.15 1673.32 1021.61 Q1675.15 1018.04 1675.15 1010.94 Q1675.15 1003.81 1673.32 1000.26 Q1671.51 996.699 1667.88 996.699 M1667.88 992.996 Q1673.69 992.996 1676.74 997.602 Q1679.82 1002.19 1679.82 1010.94 Q1679.82 1019.66 1676.74 1024.27 Q1673.69 1028.85 1667.88 1028.85 Q1662.07 1028.85 1658.99 1024.27 Q1655.93 1019.66 1655.93 1010.94 Q1655.93 1002.19 1658.99 997.602 Q1662.07 992.996 1667.88 992.996 Z" fill="#000000" fill-rule="nonzero" fill-opacity="1" /><path clip-path="url(#clip890)" d="M1795.33 1024.25 L1802.97 1024.25 L1802.97 997.88 L1794.66 999.546 L1794.66 995.287 L1802.92 993.621 L1807.6 993.621 L1807.6 1024.25 L1815.24 1024.25 L1815.24 1028.18 L1795.33 1028.18 L1795.33 1024.25 Z" fill="#000000" fill-rule="nonzero" fill-opacity="1" /><path clip-path="url(#clip890)" d="M1824.73 993.621 L1843.08 993.621 L1843.08 997.556 L1829.01 997.556 L1829.01 1006.03 Q1830.03 1005.68 1831.05 1005.52 Q1832.07 1005.33 1833.08 1005.33 Q1838.87 1005.33 1842.25 1008.5 Q1845.63 1011.68 1845.63 1017.09 Q1845.63 1022.67 1842.16 1025.77 Q1838.69 1028.85 1832.37 1028.85 Q1830.19 1028.85 1827.92 1028.48 Q1825.68 1028.11 1823.27 1027.37 L1823.27 1022.67 Q1825.35 1023.81 1827.58 1024.36 Q1829.8 1024.92 1832.27 1024.92 Q1836.28 1024.92 1838.62 1022.81 Q1840.96 1020.7 1840.96 1017.09 Q1840.96 1013.48 1838.62 1011.38 Q1836.28 1009.27 1832.27 1009.27 Q1830.4 1009.27 1828.52 1009.69 Q1826.67 1010.1 1824.73 1010.98 L1824.73 993.621 Z" fill="#000000" fill-rule="nonzero" fill-opacity="1" /><path clip-path="url(#clip890)" d="M1965.22 1024.25 L1981.54 1024.25 L1981.54 1028.18 L1959.6 1028.18 L1959.6 1024.25 Q1962.26 1021.49 1966.84 1016.86 Q1971.45 1012.21 1972.63 1010.87 Q1974.88 1008.34 1975.76 1006.61 Q1976.66 1004.85 1976.66 1003.16 Q1976.66 1000.4 1974.71 998.667 Q1972.79 996.931 1969.69 996.931 Q1967.49 996.931 1965.04 997.695 Q1962.61 998.459 1959.83 1000.01 L1959.83 995.287 Q1962.65 994.153 1965.11 993.574 Q1967.56 992.996 1969.6 992.996 Q1974.97 992.996 1978.16 995.681 Q1981.36 998.366 1981.36 1002.86 Q1981.36 1004.99 1980.55 1006.91 Q1979.76 1008.81 1977.65 1011.4 Q1977.08 1012.07 1973.97 1015.29 Q1970.87 1018.48 1965.22 1024.25 Z" fill="#000000" fill-rule="nonzero" fill-opacity="1" /><path clip-path="url(#clip890)" d="M2001.36 996.699 Q1997.75 996.699 1995.92 1000.26 Q1994.11 1003.81 1994.11 1010.94 Q1994.11 1018.04 1995.92 1021.61 Q1997.75 1025.15 2001.36 1025.15 Q2004.99 1025.15 2006.8 1021.61 Q2008.63 1018.04 2008.63 1010.94 Q2008.63 1003.81 2006.8 1000.26 Q2004.99 996.699 2001.36 996.699 M2001.36 992.996 Q2007.17 992.996 2010.22 997.602 Q2013.3 1002.19 2013.3 1010.94 Q2013.3 1019.66 2010.22 1024.27 Q2007.17 1028.85 2001.36 1028.85 Q1995.55 1028.85 1992.47 1024.27 Q1989.41 1019.66 1989.41 1010.94 Q1989.41 1002.19 1992.47 997.602 Q1995.55 992.996 2001.36 992.996 Z" fill="#000000" fill-rule="nonzero" fill-opacity="1" /><path clip-path="url(#clip890)" d="M2132.03 1024.25 L2148.35 1024.25 L2148.35 1028.18 L2126.4 1028.18 L2126.4 1024.25 Q2129.06 1021.49 2133.65 1016.86 Q2138.25 1012.21 2139.43 1010.87 Q2141.68 1008.34 2142.56 1006.61 Q2143.46 1004.85 2143.46 1003.16 Q2143.46 1000.4 2141.52 998.667 Q2139.6 996.931 2136.49 996.931 Q2134.3 996.931 2131.84 997.695 Q2129.41 998.459 2126.63 1000.01 L2126.63 995.287 Q2129.46 994.153 2131.91 993.574 Q2134.36 992.996 2136.4 992.996 Q2141.77 992.996 2144.97 995.681 Q2148.16 998.366 2148.16 1002.86 Q2148.16 1004.99 2147.35 1006.91 Q2146.56 1008.81 2144.46 1011.4 Q2143.88 1012.07 2140.78 1015.29 Q2137.67 1018.48 2132.03 1024.25 Z" fill="#000000" fill-rule="nonzero" fill-opacity="1" /><path clip-path="url(#clip890)" d="M2158.21 993.621 L2176.56 993.621 L2176.56 997.556 L2162.49 997.556 L2162.49 1006.03 Q2163.51 1005.68 2164.53 1005.52 Q2165.55 1005.33 2166.56 1005.33 Q2172.35 1005.33 2175.73 1008.5 Q2179.11 1011.68 2179.11 1017.09 Q2179.11 1022.67 2175.64 1025.77 Q2172.17 1028.85 2165.85 1028.85 Q2163.67 1028.85 2161.4 1028.48 Q2159.16 1028.11 2156.75 1027.37 L2156.75 1022.67 Q2158.83 1023.81 2161.05 1024.36 Q2163.28 1024.92 2165.75 1024.92 Q2169.76 1024.92 2172.1 1022.81 Q2174.43 1020.7 2174.43 1017.09 Q2174.43 1013.48 2172.1 1011.38 Q2169.76 1009.27 2165.75 1009.27 Q2163.88 1009.27 2162 1009.69 Q2160.15 1010.1 2158.21 1010.98 L2158.21 993.621 Z" fill="#000000" fill-rule="nonzero" fill-opacity="1" /><path clip-path="url(#clip890)" d="M1710.33 1069.37 Q1710.33 1070.27 1709.91 1070.5 Q1709.49 1070.69 1708.33 1070.69 L1702.15 1070.69 L1697.25 1090.14 Q1696.87 1091.85 1696.87 1093.3 Q1696.87 1094.91 1697.35 1095.62 Q1697.86 1096.33 1698.93 1096.33 Q1701.02 1096.33 1703.28 1094.43 Q1705.56 1092.53 1707.49 1087.89 Q1707.75 1087.28 1707.88 1087.15 Q1708.04 1086.99 1708.46 1086.99 Q1709.27 1086.99 1709.27 1087.63 Q1709.27 1087.86 1708.81 1088.89 Q1708.4 1089.92 1707.46 1091.43 Q1706.56 1092.95 1705.37 1094.36 Q1704.21 1095.78 1702.44 1096.81 Q1700.67 1097.81 1698.77 1097.81 Q1696.09 1097.81 1694.39 1096.1 Q1692.71 1094.39 1692.71 1091.72 Q1692.71 1090.85 1693.39 1088.08 Q1694.06 1085.28 1697.74 1070.69 L1691.91 1070.69 Q1691.1 1070.69 1690.78 1070.66 Q1690.49 1070.63 1690.26 1070.47 Q1690.07 1070.27 1690.07 1069.89 Q1690.07 1069.27 1690.33 1069.02 Q1690.59 1068.73 1690.91 1068.69 Q1691.26 1068.63 1692.07 1068.63 L1698.25 1068.63 L1700.83 1058.16 Q1701.09 1057.13 1701.73 1056.55 Q1702.41 1055.94 1702.79 1055.88 Q1703.18 1055.78 1703.47 1055.78 Q1704.34 1055.78 1704.85 1056.26 Q1705.37 1056.71 1705.37 1057.55 Q1705.37 1058 1702.66 1068.63 L1708.46 1068.63 Q1709.2 1068.63 1709.49 1068.66 Q1709.81 1068.69 1710.07 1068.86 Q1710.33 1069.02 1710.33 1069.37 Z" fill="#000000" fill-rule="nonzero" fill-opacity="1" /><path clip-path="url(#clip890)" d="M1713.64 1112.62 Q1713.64 1112.3 1713.9 1111.59 L1737.19 1049.37 Q1737.19 1049.31 1737.35 1048.95 Q1737.51 1048.6 1737.6 1048.37 Q1737.7 1048.11 1737.89 1047.92 Q1738.12 1047.73 1738.38 1047.73 Q1739.02 1047.73 1739.02 1048.53 Q1739.02 1048.6 1738.83 1049.37 L1715.48 1111.66 Q1715.09 1112.78 1714.83 1113.11 Q1714.61 1113.43 1714.22 1113.43 Q1713.64 1113.43 1713.64 1112.62 Z" fill="#000000" fill-rule="nonzero" fill-opacity="1" /><path clip-path="url(#clip890)" d="M1778.67 1087.63 Q1778.67 1087.89 1778.38 1088.89 Q1778.09 1089.89 1777.39 1091.43 Q1776.71 1092.98 1775.78 1094.39 Q1774.84 1095.78 1773.3 1096.81 Q1771.78 1097.81 1770.04 1097.81 Q1767.72 1097.81 1766.18 1096.26 Q1764.63 1094.72 1764.63 1092.4 Q1764.63 1092.08 1764.66 1091.75 Q1764.7 1091.43 1764.73 1091.24 Q1764.76 1091.01 1764.86 1090.66 Q1764.99 1090.27 1765.02 1090.11 Q1765.08 1089.95 1765.24 1089.47 Q1765.44 1088.95 1765.5 1088.76 Q1769.59 1078.32 1769.59 1073.98 Q1769.59 1069.37 1766.02 1069.37 Q1762.83 1069.37 1759.67 1071.69 Q1758.22 1072.85 1756.84 1074.91 Q1755.45 1076.97 1755.2 1077.74 Q1754.91 1079.42 1754.49 1080.71 Q1754.29 1081.61 1753.36 1085.12 L1751.91 1091.08 L1750.65 1096.07 Q1750.4 1096.78 1749.69 1097.29 Q1748.98 1097.81 1748.21 1097.81 Q1747.56 1097.81 1746.92 1097.36 Q1746.31 1096.94 1746.31 1095.94 Q1746.31 1095.43 1746.56 1094.49 L1756.13 1056.49 L1756.32 1055.2 Q1756.32 1054.81 1756.16 1054.62 Q1756.03 1054.4 1755.26 1054.23 Q1754.52 1054.07 1753.04 1054.07 Q1752.43 1054.07 1752.14 1054.04 Q1751.88 1054.01 1751.65 1053.85 Q1751.43 1053.65 1751.43 1053.27 Q1751.43 1052.72 1751.65 1052.43 Q1751.91 1052.11 1752.1 1052.04 Q1752.3 1051.98 1752.68 1051.95 Q1753.23 1051.92 1755.07 1051.75 Q1756.9 1051.56 1758.48 1051.43 Q1760.06 1051.3 1760.73 1051.3 Q1761.12 1051.3 1761.31 1051.5 Q1761.54 1051.66 1761.57 1051.85 L1761.6 1052.01 L1756.45 1072.98 Q1760.54 1067.92 1766.21 1067.92 Q1769.88 1067.92 1771.85 1069.82 Q1773.81 1071.69 1773.81 1074.97 Q1773.81 1078.74 1769.78 1089.47 Q1768.59 1092.46 1768.59 1094.17 Q1768.59 1095.3 1768.95 1095.81 Q1769.33 1096.33 1770.17 1096.33 Q1771.46 1096.33 1772.59 1095.59 Q1773.75 1094.81 1774.55 1093.56 Q1775.36 1092.27 1775.9 1090.98 Q1776.48 1089.66 1776.9 1088.18 Q1777.16 1087.37 1777.29 1087.18 Q1777.45 1086.99 1777.9 1086.99 Q1778.67 1086.99 1778.67 1087.63 Z" fill="#000000" fill-rule="nonzero" fill-opacity="1" /><polyline clip-path="url(#clip890)" style="stroke:#000000; stroke-linecap:round; stroke-linejoin:round; stroke-width:4; stroke-opacity:1; fill:none" points="1321.23,967.381 1321.23,47.2441 "/>
<polyline clip-path="url(#clip890)" style="stroke:#000000; stroke-linecap:round; stroke-linejoin:round; stroke-width:4; stroke-opacity:1; fill:none" points="2152.76,967.381 2152.76,47.2441 "/>
<polyline clip-path="url(#clip890)" style="stroke:#000000; stroke-linecap:round; stroke-linejoin:round; stroke-width:4; stroke-opacity:1; fill:none" points="1321.23,967.381 1340.13,967.381 "/>
<polyline clip-path="url(#clip890)" style="stroke:#000000; stroke-linecap:round; stroke-linejoin:round; stroke-width:4; stroke-opacity:1; fill:none" points="1321.23,775.685 1340.13,775.685 "/>
<polyline clip-path="url(#clip890)" style="stroke:#000000; stroke-linecap:round; stroke-linejoin:round; stroke-width:4; stroke-opacity:1; fill:none" points="1321.23,583.99 1340.13,583.99 "/>
<polyline clip-path="url(#clip890)" style="stroke:#000000; stroke-linecap:round; stroke-linejoin:round; stroke-width:4; stroke-opacity:1; fill:none" points="1321.23,392.295 1340.13,392.295 "/>
<polyline clip-path="url(#clip890)" style="stroke:#000000; stroke-linecap:round; stroke-linejoin:round; stroke-width:4; stroke-opacity:1; fill:none" points="1321.23,200.6 1340.13,200.6 "/>
<path clip-path="url(#clip890)" d="M1200.89 953.179 Q1197.28 953.179 1195.45 956.744 Q1193.65 960.286 1193.65 967.415 Q1193.65 974.522 1195.45 978.087 Q1197.28 981.628 1200.89 981.628 Q1204.53 981.628 1206.33 978.087 Q1208.16 974.522 1208.16 967.415 Q1208.16 960.286 1206.33 956.744 Q1204.53 953.179 1200.89 953.179 M1200.89 949.476 Q1206.7 949.476 1209.76 954.082 Q1212.84 958.665 1212.84 967.415 Q1212.84 976.142 1209.76 980.749 Q1206.7 985.332 1200.89 985.332 Q1195.08 985.332 1192 980.749 Q1188.95 976.142 1188.95 967.415 Q1188.95 958.665 1192 954.082 Q1195.08 949.476 1200.89 949.476 Z" fill="#000000" fill-rule="nonzero" fill-opacity="1" /><path clip-path="url(#clip890)" d="M1221.05 978.781 L1225.94 978.781 L1225.94 984.661 L1221.05 984.661 L1221.05 978.781 Z" fill="#000000" fill-rule="nonzero" fill-opacity="1" /><path clip-path="url(#clip890)" d="M1246.12 953.179 Q1242.51 953.179 1240.68 956.744 Q1238.88 960.286 1238.88 967.415 Q1238.88 974.522 1240.68 978.087 Q1242.51 981.628 1246.12 981.628 Q1249.76 981.628 1251.56 978.087 Q1253.39 974.522 1253.39 967.415 Q1253.39 960.286 1251.56 956.744 Q1249.76 953.179 1246.12 953.179 M1246.12 949.476 Q1251.93 949.476 1254.99 954.082 Q1258.07 958.665 1258.07 967.415 Q1258.07 976.142 1254.99 980.749 Q1251.93 985.332 1246.12 985.332 Q1240.31 985.332 1237.23 980.749 Q1234.18 976.142 1234.18 967.415 Q1234.18 958.665 1237.23 954.082 Q1240.31 949.476 1246.12 949.476 Z" fill="#000000" fill-rule="nonzero" fill-opacity="1" /><path clip-path="url(#clip890)" d="M1276.28 953.179 Q1272.67 953.179 1270.84 956.744 Q1269.04 960.286 1269.04 967.415 Q1269.04 974.522 1270.84 978.087 Q1272.67 981.628 1276.28 981.628 Q1279.92 981.628 1281.72 978.087 Q1283.55 974.522 1283.55 967.415 Q1283.55 960.286 1281.72 956.744 Q1279.92 953.179 1276.28 953.179 M1276.28 949.476 Q1282.09 949.476 1285.15 954.082 Q1288.23 958.665 1288.23 967.415 Q1288.23 976.142 1285.15 980.749 Q1282.09 985.332 1276.28 985.332 Q1270.47 985.332 1267.4 980.749 Q1264.34 976.142 1264.34 967.415 Q1264.34 958.665 1267.4 954.082 Q1270.47 949.476 1276.28 949.476 Z" fill="#000000" fill-rule="nonzero" fill-opacity="1" /><path clip-path="url(#clip890)" d="M1201.89 761.484 Q1198.28 761.484 1196.45 765.049 Q1194.64 768.591 1194.64 775.72 Q1194.64 782.827 1196.45 786.391 Q1198.28 789.933 1201.89 789.933 Q1205.52 789.933 1207.33 786.391 Q1209.16 782.827 1209.16 775.72 Q1209.16 768.591 1207.33 765.049 Q1205.52 761.484 1201.89 761.484 M1201.89 757.78 Q1207.7 757.78 1210.75 762.387 Q1213.83 766.97 1213.83 775.72 Q1213.83 784.447 1210.75 789.053 Q1207.7 793.637 1201.89 793.637 Q1196.08 793.637 1193 789.053 Q1189.94 784.447 1189.94 775.72 Q1189.94 766.97 1193 762.387 Q1196.08 757.78 1201.89 757.78 Z" fill="#000000" fill-rule="nonzero" fill-opacity="1" /><path clip-path="url(#clip890)" d="M1222.05 787.086 L1226.93 787.086 L1226.93 792.965 L1222.05 792.965 L1222.05 787.086 Z" fill="#000000" fill-rule="nonzero" fill-opacity="1" /><path clip-path="url(#clip890)" d="M1241.15 789.03 L1257.47 789.03 L1257.47 792.965 L1235.52 792.965 L1235.52 789.03 Q1238.18 786.276 1242.77 781.646 Q1247.37 776.993 1248.55 775.651 Q1250.8 773.128 1251.68 771.392 Q1252.58 769.632 1252.58 767.942 Q1252.58 765.188 1250.64 763.452 Q1248.72 761.716 1245.61 761.716 Q1243.41 761.716 1240.96 762.48 Q1238.53 763.243 1235.75 764.794 L1235.75 760.072 Q1238.58 758.938 1241.03 758.359 Q1243.48 757.78 1245.52 757.78 Q1250.89 757.78 1254.09 760.466 Q1257.28 763.151 1257.28 767.642 Q1257.28 769.771 1256.47 771.692 Q1255.68 773.591 1253.58 776.183 Q1253 776.854 1249.9 780.072 Q1246.79 783.266 1241.15 789.03 Z" fill="#000000" fill-rule="nonzero" fill-opacity="1" /><path clip-path="url(#clip890)" d="M1267.33 758.405 L1285.68 758.405 L1285.68 762.341 L1271.61 762.341 L1271.61 770.813 Q1272.63 770.466 1273.65 770.304 Q1274.66 770.118 1275.68 770.118 Q1281.47 770.118 1284.85 773.29 Q1288.23 776.461 1288.23 781.878 Q1288.23 787.456 1284.76 790.558 Q1281.28 793.637 1274.97 793.637 Q1272.79 793.637 1270.52 793.266 Q1268.28 792.896 1265.87 792.155 L1265.87 787.456 Q1267.95 788.59 1270.17 789.146 Q1272.4 789.702 1274.87 789.702 Q1278.88 789.702 1281.22 787.595 Q1283.55 785.489 1283.55 781.878 Q1283.55 778.266 1281.22 776.16 Q1278.88 774.054 1274.87 774.054 Q1273 774.054 1271.12 774.47 Q1269.27 774.887 1267.33 775.766 L1267.33 758.405 Z" fill="#000000" fill-rule="nonzero" fill-opacity="1" /><path clip-path="url(#clip890)" d="M1200.89 569.789 Q1197.28 569.789 1195.45 573.354 Q1193.65 576.896 1193.65 584.025 Q1193.65 591.132 1195.45 594.696 Q1197.28 598.238 1200.89 598.238 Q1204.53 598.238 1206.33 594.696 Q1208.16 591.132 1208.16 584.025 Q1208.16 576.896 1206.33 573.354 Q1204.53 569.789 1200.89 569.789 M1200.89 566.085 Q1206.7 566.085 1209.76 570.692 Q1212.84 575.275 1212.84 584.025 Q1212.84 592.752 1209.76 597.358 Q1206.7 601.942 1200.89 601.942 Q1195.08 601.942 1192 597.358 Q1188.95 592.752 1188.95 584.025 Q1188.95 575.275 1192 570.692 Q1195.08 566.085 1200.89 566.085 Z" fill="#000000" fill-rule="nonzero" fill-opacity="1" /><path clip-path="url(#clip890)" d="M1221.05 595.391 L1225.94 595.391 L1225.94 601.27 L1221.05 601.27 L1221.05 595.391 Z" fill="#000000" fill-rule="nonzero" fill-opacity="1" /><path clip-path="url(#clip890)" d="M1236.17 566.71 L1254.53 566.71 L1254.53 570.646 L1240.45 570.646 L1240.45 579.118 Q1241.47 578.77 1242.49 578.608 Q1243.51 578.423 1244.53 578.423 Q1250.31 578.423 1253.69 581.595 Q1257.07 584.766 1257.07 590.182 Q1257.07 595.761 1253.6 598.863 Q1250.13 601.942 1243.81 601.942 Q1241.63 601.942 1239.36 601.571 Q1237.12 601.201 1234.71 600.46 L1234.71 595.761 Q1236.79 596.895 1239.02 597.451 Q1241.24 598.007 1243.72 598.007 Q1247.72 598.007 1250.06 595.9 Q1252.4 593.794 1252.4 590.182 Q1252.4 586.571 1250.06 584.465 Q1247.72 582.358 1243.72 582.358 Q1241.84 582.358 1239.97 582.775 Q1238.11 583.192 1236.17 584.071 L1236.17 566.71 Z" fill="#000000" fill-rule="nonzero" fill-opacity="1" /><path clip-path="url(#clip890)" d="M1276.28 569.789 Q1272.67 569.789 1270.84 573.354 Q1269.04 576.896 1269.04 584.025 Q1269.04 591.132 1270.84 594.696 Q1272.67 598.238 1276.28 598.238 Q1279.92 598.238 1281.72 594.696 Q1283.55 591.132 1283.55 584.025 Q1283.55 576.896 1281.72 573.354 Q1279.92 569.789 1276.28 569.789 M1276.28 566.085 Q1282.09 566.085 1285.15 570.692 Q1288.23 575.275 1288.23 584.025 Q1288.23 592.752 1285.15 597.358 Q1282.09 601.942 1276.28 601.942 Q1270.47 601.942 1267.4 597.358 Q1264.34 592.752 1264.34 584.025 Q1264.34 575.275 1267.4 570.692 Q1270.47 566.085 1276.28 566.085 Z" fill="#000000" fill-rule="nonzero" fill-opacity="1" /><path clip-path="url(#clip890)" d="M1201.89 378.094 Q1198.28 378.094 1196.45 381.659 Q1194.64 385.2 1194.64 392.33 Q1194.64 399.436 1196.45 403.001 Q1198.28 406.543 1201.89 406.543 Q1205.52 406.543 1207.33 403.001 Q1209.16 399.436 1209.16 392.33 Q1209.16 385.2 1207.33 381.659 Q1205.52 378.094 1201.89 378.094 M1201.89 374.39 Q1207.7 374.39 1210.75 378.997 Q1213.83 383.58 1213.83 392.33 Q1213.83 401.057 1210.75 405.663 Q1207.7 410.247 1201.89 410.247 Q1196.08 410.247 1193 405.663 Q1189.94 401.057 1189.94 392.33 Q1189.94 383.58 1193 378.997 Q1196.08 374.39 1201.89 374.39 Z" fill="#000000" fill-rule="nonzero" fill-opacity="1" /><path clip-path="url(#clip890)" d="M1222.05 403.696 L1226.93 403.696 L1226.93 409.575 L1222.05 409.575 L1222.05 403.696 Z" fill="#000000" fill-rule="nonzero" fill-opacity="1" /><path clip-path="url(#clip890)" d="M1235.94 375.015 L1258.16 375.015 L1258.16 377.006 L1245.61 409.575 L1240.73 409.575 L1252.53 378.95 L1235.94 378.95 L1235.94 375.015 Z" fill="#000000" fill-rule="nonzero" fill-opacity="1" /><path clip-path="url(#clip890)" d="M1267.33 375.015 L1285.68 375.015 L1285.68 378.95 L1271.61 378.95 L1271.61 387.423 Q1272.63 387.075 1273.65 386.913 Q1274.66 386.728 1275.68 386.728 Q1281.47 386.728 1284.85 389.899 Q1288.23 393.071 1288.23 398.487 Q1288.23 404.066 1284.76 407.168 Q1281.28 410.247 1274.97 410.247 Q1272.79 410.247 1270.52 409.876 Q1268.28 409.506 1265.87 408.765 L1265.87 404.066 Q1267.95 405.2 1270.17 405.756 Q1272.4 406.311 1274.87 406.311 Q1278.88 406.311 1281.22 404.205 Q1283.55 402.098 1283.55 398.487 Q1283.55 394.876 1281.22 392.77 Q1278.88 390.663 1274.87 390.663 Q1273 390.663 1271.12 391.08 Q1269.27 391.497 1267.33 392.376 L1267.33 375.015 Z" fill="#000000" fill-rule="nonzero" fill-opacity="1" /><path clip-path="url(#clip890)" d="M1191.7 213.945 L1199.34 213.945 L1199.34 187.579 L1191.03 189.246 L1191.03 184.987 L1199.29 183.32 L1203.97 183.32 L1203.97 213.945 L1211.61 213.945 L1211.61 217.88 L1191.7 217.88 L1191.7 213.945 Z" fill="#000000" fill-rule="nonzero" fill-opacity="1" /><path clip-path="url(#clip890)" d="M1221.05 212.001 L1225.94 212.001 L1225.94 217.88 L1221.05 217.88 L1221.05 212.001 Z" fill="#000000" fill-rule="nonzero" fill-opacity="1" /><path clip-path="url(#clip890)" d="M1246.12 186.399 Q1242.51 186.399 1240.68 189.964 Q1238.88 193.505 1238.88 200.635 Q1238.88 207.741 1240.68 211.306 Q1242.51 214.848 1246.12 214.848 Q1249.76 214.848 1251.56 211.306 Q1253.39 207.741 1253.39 200.635 Q1253.39 193.505 1251.56 189.964 Q1249.76 186.399 1246.12 186.399 M1246.12 182.695 Q1251.93 182.695 1254.99 187.302 Q1258.07 191.885 1258.07 200.635 Q1258.07 209.362 1254.99 213.968 Q1251.93 218.551 1246.12 218.551 Q1240.31 218.551 1237.23 213.968 Q1234.18 209.362 1234.18 200.635 Q1234.18 191.885 1237.23 187.302 Q1240.31 182.695 1246.12 182.695 Z" fill="#000000" fill-rule="nonzero" fill-opacity="1" /><path clip-path="url(#clip890)" d="M1276.28 186.399 Q1272.67 186.399 1270.84 189.964 Q1269.04 193.505 1269.04 200.635 Q1269.04 207.741 1270.84 211.306 Q1272.67 214.848 1276.28 214.848 Q1279.92 214.848 1281.72 211.306 Q1283.55 207.741 1283.55 200.635 Q1283.55 193.505 1281.72 189.964 Q1279.92 186.399 1276.28 186.399 M1276.28 182.695 Q1282.09 182.695 1285.15 187.302 Q1288.23 191.885 1288.23 200.635 Q1288.23 209.362 1285.15 213.968 Q1282.09 218.551 1276.28 218.551 Q1270.47 218.551 1267.4 213.968 Q1264.34 209.362 1264.34 200.635 Q1264.34 191.885 1267.4 187.302 Q1270.47 182.695 1276.28 182.695 Z" fill="#000000" fill-rule="nonzero" fill-opacity="1" /><path clip-path="url(#clip890)" d="M1099.45 686.475 L1117.31 686.475 L1117.31 678.391 Q1117.31 673.903 1114.99 671.452 Q1112.66 669.001 1108.37 669.001 Q1104.1 669.001 1101.78 671.452 Q1099.45 673.903 1099.45 678.391 L1099.45 686.475 M1094.17 692.905 L1094.17 678.391 Q1094.17 670.402 1097.8 666.328 Q1101.4 662.222 1108.37 662.222 Q1115.4 662.222 1119 666.328 Q1122.59 670.402 1122.59 678.391 L1122.59 686.475 L1141.69 686.475 L1141.69 692.905 L1094.17 692.905 Z" fill="#000000" fill-rule="nonzero" fill-opacity="1" /><path clip-path="url(#clip890)" d="M1110.15 642.361 Q1110.15 647.071 1113.84 649.809 Q1117.5 652.546 1123.9 652.546 Q1130.3 652.546 1133.99 649.841 Q1137.65 647.103 1137.65 642.361 Q1137.65 637.682 1133.96 634.945 Q1130.26 632.207 1123.9 632.207 Q1117.57 632.207 1113.87 634.945 Q1110.15 637.682 1110.15 642.361 M1105.18 642.361 Q1105.18 634.722 1110.15 630.361 Q1115.11 626.001 1123.9 626.001 Q1132.65 626.001 1137.65 630.361 Q1142.61 634.722 1142.61 642.361 Q1142.61 650.031 1137.65 654.392 Q1132.65 658.721 1123.9 658.721 Q1115.11 658.721 1110.15 654.392 Q1105.18 650.031 1105.18 642.361 Z" fill="#000000" fill-rule="nonzero" fill-opacity="1" /><path clip-path="url(#clip890)" d="M1106.04 619.699 L1106.04 613.842 L1133.86 606.522 L1106.04 599.233 L1106.04 592.326 L1133.86 585.006 L1106.04 577.717 L1106.04 571.861 L1141.69 581.186 L1141.69 588.093 L1112.47 595.764 L1141.69 603.466 L1141.69 610.373 L1106.04 619.699 Z" fill="#000000" fill-rule="nonzero" fill-opacity="1" /><path clip-path="url(#clip890)" d="M1122.4 532.489 L1125.27 532.489 L1125.27 559.416 Q1131.32 559.034 1134.5 555.787 Q1137.65 552.509 1137.65 546.684 Q1137.65 543.31 1136.82 540.159 Q1135.99 536.977 1134.34 533.857 L1139.88 533.857 Q1141.21 537.008 1141.91 540.319 Q1142.61 543.629 1142.61 547.034 Q1142.61 555.564 1137.65 560.561 Q1132.68 565.527 1124.22 565.527 Q1115.46 565.527 1110.34 560.816 Q1105.18 556.074 1105.18 548.053 Q1105.18 540.86 1109.83 536.69 Q1114.45 532.489 1122.4 532.489 M1120.68 538.345 Q1115.88 538.409 1113.01 541.051 Q1110.15 543.661 1110.15 547.989 Q1110.15 552.891 1112.92 555.851 Q1115.69 558.779 1120.72 559.225 L1120.68 538.345 Z" fill="#000000" fill-rule="nonzero" fill-opacity="1" /><path clip-path="url(#clip890)" d="M1111.52 502.22 Q1110.94 503.206 1110.69 504.384 Q1110.4 505.53 1110.4 506.93 Q1110.4 511.896 1113.65 514.569 Q1116.86 517.211 1122.91 517.211 L1141.69 517.211 L1141.69 523.099 L1106.04 523.099 L1106.04 517.211 L1111.58 517.211 Q1108.33 515.365 1106.78 512.405 Q1105.18 509.445 1105.18 505.212 Q1105.18 504.607 1105.28 503.875 Q1105.34 503.143 1105.5 502.252 L1111.52 502.22 Z" fill="#000000" fill-rule="nonzero" fill-opacity="1" /><path clip-path="url(#clip890)" d="M1094.17 464.949 L1094.17 459.538 L1147.74 476.089 L1147.74 481.499 L1094.17 464.949 Z" fill="#000000" fill-rule="nonzero" fill-opacity="1" /><path clip-path="url(#clip890)" d="M1136.34 427.009 L1155.25 427.009 L1155.25 432.897 L1106.04 432.897 L1106.04 427.009 L1111.45 427.009 Q1108.27 425.163 1106.74 422.362 Q1105.18 419.529 1105.18 415.614 Q1105.18 409.121 1110.34 405.079 Q1115.5 401.005 1123.9 401.005 Q1132.3 401.005 1137.46 405.079 Q1142.61 409.121 1142.61 415.614 Q1142.61 419.529 1141.09 422.362 Q1139.53 425.163 1136.34 427.009 M1123.9 407.084 Q1117.44 407.084 1113.78 409.758 Q1110.09 412.4 1110.09 417.047 Q1110.09 421.694 1113.78 424.367 Q1117.44 427.009 1123.9 427.009 Q1130.36 427.009 1134.05 424.367 Q1137.71 421.694 1137.71 417.047 Q1137.71 412.4 1134.05 409.758 Q1130.36 407.084 1123.9 407.084 Z" fill="#000000" fill-rule="nonzero" fill-opacity="1" /><path clip-path="url(#clip890)" d="M1133.61 390.47 L1133.61 383.754 L1141.69 383.754 L1141.69 390.47 L1133.61 390.47 Z" fill="#000000" fill-rule="nonzero" fill-opacity="1" /><path clip-path="url(#clip890)" d="M1127.62 371.182 L1106.04 371.182 L1106.04 365.325 L1127.4 365.325 Q1132.46 365.325 1135.01 363.352 Q1137.52 361.379 1137.52 357.432 Q1137.52 352.689 1134.5 349.952 Q1131.47 347.183 1126.25 347.183 L1106.04 347.183 L1106.04 341.327 L1141.69 341.327 L1141.69 347.183 L1136.22 347.183 Q1139.46 349.315 1141.05 352.148 Q1142.61 354.949 1142.61 358.673 Q1142.61 364.816 1138.79 367.999 Q1134.98 371.182 1127.62 371.182 M1105.18 356.445 L1105.18 356.445 Z" fill="#000000" fill-rule="nonzero" fill-opacity="1" /><path clip-path="url(#clip890)" d="M1133.61 328.436 L1133.61 321.72 L1141.69 321.72 L1141.69 328.436 L1133.61 328.436 Z" fill="#000000" fill-rule="nonzero" fill-opacity="1" /><polyline clip-path="url(#clip893)" style="stroke:#ffa500; stroke-linecap:round; stroke-linejoin:round; stroke-width:8; stroke-opacity:1; fill:none" points="1354.49,706.315 1387.75,650.69 1421.01,661.385 1454.27,656.628 1487.53,644.07 1520.8,640.012 1554.06,571.713 1587.32,498.343 1620.58,541.846 1653.84,543.87 1687.1,397.745 1720.36,404.463 1753.62,406.7 1786.88,410.974 1820.15,403.185 1853.41,533.499 1886.67,607.478 1919.93,654.776 1953.19,620.69 1986.45,679.489 2019.71,662.016 2052.97,545.798 2086.23,536.34 2119.49,641.692 "/>
<circle clip-path="url(#clip893)" cx="1354.49" cy="706.315" r="14.4" fill="#ffffff" fill-rule="evenodd" fill-opacity="1" stroke="#ffa500" stroke-opacity="1" stroke-width="4.48"/>
<circle clip-path="url(#clip893)" cx="1387.75" cy="650.69" r="14.4" fill="#ffffff" fill-rule="evenodd" fill-opacity="1" stroke="#ffa500" stroke-opacity="1" stroke-width="4.48"/>
<circle clip-path="url(#clip893)" cx="1421.01" cy="661.385" r="14.4" fill="#ffffff" fill-rule="evenodd" fill-opacity="1" stroke="#ffa500" stroke-opacity="1" stroke-width="4.48"/>
<circle clip-path="url(#clip893)" cx="1454.27" cy="656.628" r="14.4" fill="#ffffff" fill-rule="evenodd" fill-opacity="1" stroke="#ffa500" stroke-opacity="1" stroke-width="4.48"/>
<circle clip-path="url(#clip893)" cx="1487.53" cy="644.07" r="14.4" fill="#ffffff" fill-rule="evenodd" fill-opacity="1" stroke="#ffa500" stroke-opacity="1" stroke-width="4.48"/>
<circle clip-path="url(#clip893)" cx="1520.8" cy="640.012" r="14.4" fill="#ffffff" fill-rule="evenodd" fill-opacity="1" stroke="#ffa500" stroke-opacity="1" stroke-width="4.48"/>
<circle clip-path="url(#clip893)" cx="1554.06" cy="571.713" r="14.4" fill="#ffffff" fill-rule="evenodd" fill-opacity="1" stroke="#ffa500" stroke-opacity="1" stroke-width="4.48"/>
<circle clip-path="url(#clip893)" cx="1587.32" cy="498.343" r="14.4" fill="#ffffff" fill-rule="evenodd" fill-opacity="1" stroke="#ffa500" stroke-opacity="1" stroke-width="4.48"/>
<circle clip-path="url(#clip893)" cx="1620.58" cy="541.846" r="14.4" fill="#ffffff" fill-rule="evenodd" fill-opacity="1" stroke="#ffa500" stroke-opacity="1" stroke-width="4.48"/>
<circle clip-path="url(#clip893)" cx="1653.84" cy="543.87" r="14.4" fill="#ffffff" fill-rule="evenodd" fill-opacity="1" stroke="#ffa500" stroke-opacity="1" stroke-width="4.48"/>
<circle clip-path="url(#clip893)" cx="1687.1" cy="397.745" r="14.4" fill="#ffffff" fill-rule="evenodd" fill-opacity="1" stroke="#ffa500" stroke-opacity="1" stroke-width="4.48"/>
<circle clip-path="url(#clip893)" cx="1720.36" cy="404.463" r="14.4" fill="#ffffff" fill-rule="evenodd" fill-opacity="1" stroke="#ffa500" stroke-opacity="1" stroke-width="4.48"/>
<circle clip-path="url(#clip893)" cx="1753.62" cy="406.7" r="14.4" fill="#ffffff" fill-rule="evenodd" fill-opacity="1" stroke="#ffa500" stroke-opacity="1" stroke-width="4.48"/>
<circle clip-path="url(#clip893)" cx="1786.88" cy="410.974" r="14.4" fill="#ffffff" fill-rule="evenodd" fill-opacity="1" stroke="#ffa500" stroke-opacity="1" stroke-width="4.48"/>
<circle clip-path="url(#clip893)" cx="1820.15" cy="403.185" r="14.4" fill="#ffffff" fill-rule="evenodd" fill-opacity="1" stroke="#ffa500" stroke-opacity="1" stroke-width="4.48"/>
<circle clip-path="url(#clip893)" cx="1853.41" cy="533.499" r="14.4" fill="#ffffff" fill-rule="evenodd" fill-opacity="1" stroke="#ffa500" stroke-opacity="1" stroke-width="4.48"/>
<circle clip-path="url(#clip893)" cx="1886.67" cy="607.478" r="14.4" fill="#ffffff" fill-rule="evenodd" fill-opacity="1" stroke="#ffa500" stroke-opacity="1" stroke-width="4.48"/>
<circle clip-path="url(#clip893)" cx="1919.93" cy="654.776" r="14.4" fill="#ffffff" fill-rule="evenodd" fill-opacity="1" stroke="#ffa500" stroke-opacity="1" stroke-width="4.48"/>
<circle clip-path="url(#clip893)" cx="1953.19" cy="620.69" r="14.4" fill="#ffffff" fill-rule="evenodd" fill-opacity="1" stroke="#ffa500" stroke-opacity="1" stroke-width="4.48"/>
<circle clip-path="url(#clip893)" cx="1986.45" cy="679.489" r="14.4" fill="#ffffff" fill-rule="evenodd" fill-opacity="1" stroke="#ffa500" stroke-opacity="1" stroke-width="4.48"/>
<circle clip-path="url(#clip893)" cx="2019.71" cy="662.016" r="14.4" fill="#ffffff" fill-rule="evenodd" fill-opacity="1" stroke="#ffa500" stroke-opacity="1" stroke-width="4.48"/>
<circle clip-path="url(#clip893)" cx="2052.97" cy="545.798" r="14.4" fill="#ffffff" fill-rule="evenodd" fill-opacity="1" stroke="#ffa500" stroke-opacity="1" stroke-width="4.48"/>
<circle clip-path="url(#clip893)" cx="2086.23" cy="536.34" r="14.4" fill="#ffffff" fill-rule="evenodd" fill-opacity="1" stroke="#ffa500" stroke-opacity="1" stroke-width="4.48"/>
<circle clip-path="url(#clip893)" cx="2119.49" cy="641.692" r="14.4" fill="#ffffff" fill-rule="evenodd" fill-opacity="1" stroke="#ffa500" stroke-opacity="1" stroke-width="4.48"/>
<polyline clip-path="url(#clip893)" style="stroke:#add8e6; stroke-linecap:round; stroke-linejoin:round; stroke-width:8; stroke-opacity:1; fill:none" stroke-dasharray="32, 20" points="1354.49,706.315 1387.75,650.69 1421.01,661.385 1454.27,656.628 1487.53,644.07 1520.8,670.683 1554.06,571.713 1587.32,498.343 1620.58,541.846 1653.84,543.87 1687.1,397.745 1720.36,404.463 1753.62,406.7 1786.88,410.974 1820.15,403.185 1853.41,533.499 1886.67,607.478 1919.93,654.776 1953.19,620.69 1986.45,679.489 2019.71,662.016 2052.97,545.798 2086.23,536.34 2119.49,641.692 "/>
<path clip-path="url(#clip893)" d="M1338.49 690.315 L1338.49 722.315 L1370.49 722.315 L1370.49 690.315 L1338.49 690.315 Z" fill="#ffffff" fill-rule="evenodd" fill-opacity="1" stroke="#add8e6" stroke-opacity="1" stroke-width="4.48"/>
<path clip-path="url(#clip893)" d="M1371.75 634.69 L1371.75 666.69 L1403.75 666.69 L1403.75 634.69 L1371.75 634.69 Z" fill="#ffffff" fill-rule="evenodd" fill-opacity="1" stroke="#add8e6" stroke-opacity="1" stroke-width="4.48"/>
<path clip-path="url(#clip893)" d="M1405.01 645.385 L1405.01 677.385 L1437.01 677.385 L1437.01 645.385 L1405.01 645.385 Z" fill="#ffffff" fill-rule="evenodd" fill-opacity="1" stroke="#add8e6" stroke-opacity="1" stroke-width="4.48"/>
<path clip-path="url(#clip893)" d="M1438.27 640.628 L1438.27 672.628 L1470.27 672.628 L1470.27 640.628 L1438.27 640.628 Z" fill="#ffffff" fill-rule="evenodd" fill-opacity="1" stroke="#add8e6" stroke-opacity="1" stroke-width="4.48"/>
<path clip-path="url(#clip893)" d="M1471.53 628.07 L1471.53 660.07 L1503.53 660.07 L1503.53 628.07 L1471.53 628.07 Z" fill="#ffffff" fill-rule="evenodd" fill-opacity="1" stroke="#add8e6" stroke-opacity="1" stroke-width="4.48"/>
<path clip-path="url(#clip893)" d="M1504.8 654.683 L1504.8 686.683 L1536.8 686.683 L1536.8 654.683 L1504.8 654.683 Z" fill="#ffffff" fill-rule="evenodd" fill-opacity="1" stroke="#add8e6" stroke-opacity="1" stroke-width="4.48"/>
<path clip-path="url(#clip893)" d="M1538.06 555.713 L1538.06 587.713 L1570.06 587.713 L1570.06 555.713 L1538.06 555.713 Z" fill="#ffffff" fill-rule="evenodd" fill-opacity="1" stroke="#add8e6" stroke-opacity="1" stroke-width="4.48"/>
<path clip-path="url(#clip893)" d="M1571.32 482.343 L1571.32 514.343 L1603.32 514.343 L1603.32 482.343 L1571.32 482.343 Z" fill="#ffffff" fill-rule="evenodd" fill-opacity="1" stroke="#add8e6" stroke-opacity="1" stroke-width="4.48"/>
<path clip-path="url(#clip893)" d="M1604.58 525.846 L1604.58 557.846 L1636.58 557.846 L1636.58 525.846 L1604.58 525.846 Z" fill="#ffffff" fill-rule="evenodd" fill-opacity="1" stroke="#add8e6" stroke-opacity="1" stroke-width="4.48"/>
<path clip-path="url(#clip893)" d="M1637.84 527.87 L1637.84 559.87 L1669.84 559.87 L1669.84 527.87 L1637.84 527.87 Z" fill="#ffffff" fill-rule="evenodd" fill-opacity="1" stroke="#add8e6" stroke-opacity="1" stroke-width="4.48"/>
<path clip-path="url(#clip893)" d="M1671.1 381.745 L1671.1 413.745 L1703.1 413.745 L1703.1 381.745 L1671.1 381.745 Z" fill="#ffffff" fill-rule="evenodd" fill-opacity="1" stroke="#add8e6" stroke-opacity="1" stroke-width="4.48"/>
<path clip-path="url(#clip893)" d="M1704.36 388.463 L1704.36 420.463 L1736.36 420.463 L1736.36 388.463 L1704.36 388.463 Z" fill="#ffffff" fill-rule="evenodd" fill-opacity="1" stroke="#add8e6" stroke-opacity="1" stroke-width="4.48"/>
<path clip-path="url(#clip893)" d="M1737.62 390.7 L1737.62 422.7 L1769.62 422.7 L1769.62 390.7 L1737.62 390.7 Z" fill="#ffffff" fill-rule="evenodd" fill-opacity="1" stroke="#add8e6" stroke-opacity="1" stroke-width="4.48"/>
<path clip-path="url(#clip893)" d="M1770.88 394.974 L1770.88 426.974 L1802.88 426.974 L1802.88 394.974 L1770.88 394.974 Z" fill="#ffffff" fill-rule="evenodd" fill-opacity="1" stroke="#add8e6" stroke-opacity="1" stroke-width="4.48"/>
<path clip-path="url(#clip893)" d="M1804.15 387.185 L1804.15 419.185 L1836.15 419.185 L1836.15 387.185 L1804.15 387.185 Z" fill="#ffffff" fill-rule="evenodd" fill-opacity="1" stroke="#add8e6" stroke-opacity="1" stroke-width="4.48"/>
<path clip-path="url(#clip893)" d="M1837.41 517.499 L1837.41 549.499 L1869.41 549.499 L1869.41 517.499 L1837.41 517.499 Z" fill="#ffffff" fill-rule="evenodd" fill-opacity="1" stroke="#add8e6" stroke-opacity="1" stroke-width="4.48"/>
<path clip-path="url(#clip893)" d="M1870.67 591.478 L1870.67 623.478 L1902.67 623.478 L1902.67 591.478 L1870.67 591.478 Z" fill="#ffffff" fill-rule="evenodd" fill-opacity="1" stroke="#add8e6" stroke-opacity="1" stroke-width="4.48"/>
<path clip-path="url(#clip893)" d="M1903.93 638.776 L1903.93 670.776 L1935.93 670.776 L1935.93 638.776 L1903.93 638.776 Z" fill="#ffffff" fill-rule="evenodd" fill-opacity="1" stroke="#add8e6" stroke-opacity="1" stroke-width="4.48"/>
<path clip-path="url(#clip893)" d="M1937.19 604.69 L1937.19 636.69 L1969.19 636.69 L1969.19 604.69 L1937.19 604.69 Z" fill="#ffffff" fill-rule="evenodd" fill-opacity="1" stroke="#add8e6" stroke-opacity="1" stroke-width="4.48"/>
<path clip-path="url(#clip893)" d="M1970.45 663.489 L1970.45 695.489 L2002.45 695.489 L2002.45 663.489 L1970.45 663.489 Z" fill="#ffffff" fill-rule="evenodd" fill-opacity="1" stroke="#add8e6" stroke-opacity="1" stroke-width="4.48"/>
<path clip-path="url(#clip893)" d="M2003.71 646.016 L2003.71 678.016 L2035.71 678.016 L2035.71 646.016 L2003.71 646.016 Z" fill="#ffffff" fill-rule="evenodd" fill-opacity="1" stroke="#add8e6" stroke-opacity="1" stroke-width="4.48"/>
<path clip-path="url(#clip893)" d="M2036.97 529.798 L2036.97 561.798 L2068.97 561.798 L2068.97 529.798 L2036.97 529.798 Z" fill="#ffffff" fill-rule="evenodd" fill-opacity="1" stroke="#add8e6" stroke-opacity="1" stroke-width="4.48"/>
<path clip-path="url(#clip893)" d="M2070.23 520.34 L2070.23 552.34 L2102.23 552.34 L2102.23 520.34 L2070.23 520.34 Z" fill="#ffffff" fill-rule="evenodd" fill-opacity="1" stroke="#add8e6" stroke-opacity="1" stroke-width="4.48"/>
<path clip-path="url(#clip893)" d="M2103.49 625.692 L2103.49 657.692 L2135.49 657.692 L2135.49 625.692 L2103.49 625.692 Z" fill="#ffffff" fill-rule="evenodd" fill-opacity="1" stroke="#add8e6" stroke-opacity="1" stroke-width="4.48"/>
<polyline clip-path="url(#clip893)" style="stroke:#90ee90; stroke-linecap:round; stroke-linejoin:round; stroke-width:8; stroke-opacity:1; fill:none" stroke-dasharray="4, 8" points="1354.49,706.315 1387.75,650.69 1421.01,661.385 1454.27,656.628 1487.53,644.07 1520.8,670.683 1554.06,571.713 1587.32,498.343 1620.58,541.846 1653.84,543.87 1687.1,397.745 1720.36,404.463 1753.62,406.7 1786.88,410.974 1820.15,403.185 1853.41,533.499 1886.67,607.478 1919.93,654.776 1953.19,620.69 1986.45,679.489 2019.71,662.016 2052.97,545.798 2086.23,536.34 2119.49,641.692 "/>
<path clip-path="url(#clip893)" d="M1354.49 690.315 L1338.49 706.315 L1354.49 722.315 L1370.49 706.315 L1354.49 690.315 Z" fill="#ffffff" fill-rule="evenodd" fill-opacity="1" stroke="#90ee90" stroke-opacity="1" stroke-width="4.48"/>
<path clip-path="url(#clip893)" d="M1387.75 634.69 L1371.75 650.69 L1387.75 666.69 L1403.75 650.69 L1387.75 634.69 Z" fill="#ffffff" fill-rule="evenodd" fill-opacity="1" stroke="#90ee90" stroke-opacity="1" stroke-width="4.48"/>
<path clip-path="url(#clip893)" d="M1421.01 645.385 L1405.01 661.385 L1421.01 677.385 L1437.01 661.385 L1421.01 645.385 Z" fill="#ffffff" fill-rule="evenodd" fill-opacity="1" stroke="#90ee90" stroke-opacity="1" stroke-width="4.48"/>
<path clip-path="url(#clip893)" d="M1454.27 640.628 L1438.27 656.628 L1454.27 672.628 L1470.27 656.628 L1454.27 640.628 Z" fill="#ffffff" fill-rule="evenodd" fill-opacity="1" stroke="#90ee90" stroke-opacity="1" stroke-width="4.48"/>
<path clip-path="url(#clip893)" d="M1487.53 628.07 L1471.53 644.07 L1487.53 660.07 L1503.53 644.07 L1487.53 628.07 Z" fill="#ffffff" fill-rule="evenodd" fill-opacity="1" stroke="#90ee90" stroke-opacity="1" stroke-width="4.48"/>
<path clip-path="url(#clip893)" d="M1520.8 654.683 L1504.8 670.683 L1520.8 686.683 L1536.8 670.683 L1520.8 654.683 Z" fill="#ffffff" fill-rule="evenodd" fill-opacity="1" stroke="#90ee90" stroke-opacity="1" stroke-width="4.48"/>
<path clip-path="url(#clip893)" d="M1554.06 555.713 L1538.06 571.713 L1554.06 587.713 L1570.06 571.713 L1554.06 555.713 Z" fill="#ffffff" fill-rule="evenodd" fill-opacity="1" stroke="#90ee90" stroke-opacity="1" stroke-width="4.48"/>
<path clip-path="url(#clip893)" d="M1587.32 482.343 L1571.32 498.343 L1587.32 514.343 L1603.32 498.343 L1587.32 482.343 Z" fill="#ffffff" fill-rule="evenodd" fill-opacity="1" stroke="#90ee90" stroke-opacity="1" stroke-width="4.48"/>
<path clip-path="url(#clip893)" d="M1620.58 525.846 L1604.58 541.846 L1620.58 557.846 L1636.58 541.846 L1620.58 525.846 Z" fill="#ffffff" fill-rule="evenodd" fill-opacity="1" stroke="#90ee90" stroke-opacity="1" stroke-width="4.48"/>
<path clip-path="url(#clip893)" d="M1653.84 527.87 L1637.84 543.87 L1653.84 559.87 L1669.84 543.87 L1653.84 527.87 Z" fill="#ffffff" fill-rule="evenodd" fill-opacity="1" stroke="#90ee90" stroke-opacity="1" stroke-width="4.48"/>
<path clip-path="url(#clip893)" d="M1687.1 381.745 L1671.1 397.745 L1687.1 413.745 L1703.1 397.745 L1687.1 381.745 Z" fill="#ffffff" fill-rule="evenodd" fill-opacity="1" stroke="#90ee90" stroke-opacity="1" stroke-width="4.48"/>
<path clip-path="url(#clip893)" d="M1720.36 388.463 L1704.36 404.463 L1720.36 420.463 L1736.36 404.463 L1720.36 388.463 Z" fill="#ffffff" fill-rule="evenodd" fill-opacity="1" stroke="#90ee90" stroke-opacity="1" stroke-width="4.48"/>
<path clip-path="url(#clip893)" d="M1753.62 390.7 L1737.62 406.7 L1753.62 422.7 L1769.62 406.7 L1753.62 390.7 Z" fill="#ffffff" fill-rule="evenodd" fill-opacity="1" stroke="#90ee90" stroke-opacity="1" stroke-width="4.48"/>
<path clip-path="url(#clip893)" d="M1786.88 394.974 L1770.88 410.974 L1786.88 426.974 L1802.88 410.974 L1786.88 394.974 Z" fill="#ffffff" fill-rule="evenodd" fill-opacity="1" stroke="#90ee90" stroke-opacity="1" stroke-width="4.48"/>
<path clip-path="url(#clip893)" d="M1820.15 387.185 L1804.15 403.185 L1820.15 419.185 L1836.15 403.185 L1820.15 387.185 Z" fill="#ffffff" fill-rule="evenodd" fill-opacity="1" stroke="#90ee90" stroke-opacity="1" stroke-width="4.48"/>
<path clip-path="url(#clip893)" d="M1853.41 517.499 L1837.41 533.499 L1853.41 549.499 L1869.41 533.499 L1853.41 517.499 Z" fill="#ffffff" fill-rule="evenodd" fill-opacity="1" stroke="#90ee90" stroke-opacity="1" stroke-width="4.48"/>
<path clip-path="url(#clip893)" d="M1886.67 591.478 L1870.67 607.478 L1886.67 623.478 L1902.67 607.478 L1886.67 591.478 Z" fill="#ffffff" fill-rule="evenodd" fill-opacity="1" stroke="#90ee90" stroke-opacity="1" stroke-width="4.48"/>
<path clip-path="url(#clip893)" d="M1919.93 638.776 L1903.93 654.776 L1919.93 670.776 L1935.93 654.776 L1919.93 638.776 Z" fill="#ffffff" fill-rule="evenodd" fill-opacity="1" stroke="#90ee90" stroke-opacity="1" stroke-width="4.48"/>
<path clip-path="url(#clip893)" d="M1953.19 604.69 L1937.19 620.69 L1953.19 636.69 L1969.19 620.69 L1953.19 604.69 Z" fill="#ffffff" fill-rule="evenodd" fill-opacity="1" stroke="#90ee90" stroke-opacity="1" stroke-width="4.48"/>
<path clip-path="url(#clip893)" d="M1986.45 663.489 L1970.45 679.489 L1986.45 695.489 L2002.45 679.489 L1986.45 663.489 Z" fill="#ffffff" fill-rule="evenodd" fill-opacity="1" stroke="#90ee90" stroke-opacity="1" stroke-width="4.48"/>
<path clip-path="url(#clip893)" d="M2019.71 646.016 L2003.71 662.016 L2019.71 678.016 L2035.71 662.016 L2019.71 646.016 Z" fill="#ffffff" fill-rule="evenodd" fill-opacity="1" stroke="#90ee90" stroke-opacity="1" stroke-width="4.48"/>
<path clip-path="url(#clip893)" d="M2052.97 529.798 L2036.97 545.798 L2052.97 561.798 L2068.97 545.798 L2052.97 529.798 Z" fill="#ffffff" fill-rule="evenodd" fill-opacity="1" stroke="#90ee90" stroke-opacity="1" stroke-width="4.48"/>
<path clip-path="url(#clip893)" d="M2086.23 520.34 L2070.23 536.34 L2086.23 552.34 L2102.23 536.34 L2086.23 520.34 Z" fill="#ffffff" fill-rule="evenodd" fill-opacity="1" stroke="#90ee90" stroke-opacity="1" stroke-width="4.48"/>
<path clip-path="url(#clip893)" d="M2119.49 625.692 L2103.49 641.692 L2119.49 657.692 L2135.49 641.692 L2119.49 625.692 Z" fill="#ffffff" fill-rule="evenodd" fill-opacity="1" stroke="#90ee90" stroke-opacity="1" stroke-width="4.48"/>
<path clip-path="url(#clip890)" d="M1334.29 292.888 L2125.04 292.888 L2125.04 77.9153 L1334.29 77.9153  Z" fill="#ffffff" fill-rule="evenodd" fill-opacity="1"/>
<polyline clip-path="url(#clip890)" style="stroke:#000000; stroke-linecap:round; stroke-linejoin:round; stroke-width:4; stroke-opacity:1; fill:none" points="1334.29,292.888 2125.04,292.888 2125.04,77.9153 1334.29,77.9153 1334.29,292.888 "/>
<polyline clip-path="url(#clip890)" style="stroke:#ffa500; stroke-linecap:round; stroke-linejoin:round; stroke-width:8; stroke-opacity:1; fill:none" points="1343.53,131.658 1398.97,131.658 "/>
<circle clip-path="url(#clip890)" cx="1371.25" cy="131.658" r="7.42668" fill="#ffffff" fill-rule="evenodd" fill-opacity="1" stroke="#ffa500" stroke-opacity="1" stroke-width="4.62105"/>
<g clip-path="url(#clip890)">
<text style="fill:#000000; fill-opacity:1; font-family:Book Antiqua,Palatino,Palatino Linotype,Palatino LT STD,Georgia,serif; font-size:51px; font-weight:bold; text-anchor:start;" transform="rotate(0, 1408.21, 149.158)" x="1408.21" y="149.158">benchmark</text>
</g>
<polyline clip-path="url(#clip890)" style="stroke:#add8e6; stroke-linecap:round; stroke-linejoin:round; stroke-width:8; stroke-opacity:1; fill:none" stroke-dasharray="32, 20" points="1343.53,185.401 1398.97,185.401 "/>
<path clip-path="url(#clip890)" d="M1363 177.15 L1363 193.653 L1379.5 193.653 L1379.5 177.15 L1363 177.15 Z" fill="#ffffff" fill-rule="evenodd" fill-opacity="1" stroke="#add8e6" stroke-opacity="1" stroke-width="4.62105"/>
<g clip-path="url(#clip890)">
<text style="fill:#000000; fill-opacity:1; font-family:Book Antiqua,Palatino,Palatino Linotype,Palatino LT STD,Georgia,serif; font-size:51px; font-weight:bold; text-anchor:start;" transform="rotate(0, 1408.21, 202.901)" x="1408.21" y="202.901">downforward flexiramp</text>
</g>
<polyline clip-path="url(#clip890)" style="stroke:#90ee90; stroke-linecap:round; stroke-linejoin:round; stroke-width:8; stroke-opacity:1; fill:none" stroke-dasharray="4, 8" points="1343.53,239.145 1398.97,239.145 "/>
<path clip-path="url(#clip890)" d="M1371.25 230.893 L1363 239.145 L1371.25 247.396 L1379.5 239.145 L1371.25 230.893 Z" fill="#ffffff" fill-rule="evenodd" fill-opacity="1" stroke="#90ee90" stroke-opacity="1" stroke-width="4.62105"/>
<g clip-path="url(#clip890)">
<text style="fill:#000000; fill-opacity:1; font-family:Book Antiqua,Palatino,Palatino Linotype,Palatino LT STD,Georgia,serif; font-size:51px; font-weight:bold; text-anchor:start;" transform="rotate(0, 1408.21, 256.645)" x="1408.21" y="256.645">actual downforward flexiramp</text>
</g>
</svg>
